<svg xmlns="http://www.w3.org/2000/svg" xmlns:xlink="http://www.w3.org/1999/xlink" xmlns:lucid="lucid" width="937" height="1001"><g transform="translate(-119 -171)" lucid:page-tab-id="0_0"><g stroke="#000" stroke-width="2"><path d="M174.83 370.5h-40v-181h40" fill="#fff"/><path d="M174.83 370.5h858.88v-181H174.84M174.83 370.5v-181" fill="none"/><path fill="none" transform="matrix(6.123233995736766e-17,-1,1,6.123233995736766e-17,304.26185286110854,864.2774729815881)"/></g><use xlink:href="#a" transform="matrix(6.123233995736766e-17,-1,1,6.123233995736766e-17,134.83146067415734,370.50781006023976) translate(42.28249410459149 23.995006242197253)"/><path d="M174.24 921.35h-40V409.03h40" stroke="#000" stroke-width="2" fill="#fff"/><path d="M174.24 921.35h859.47V741.57H174.25zM174.24 741.57h859.47V566.33H174.25z" fill="none"/><path d="M174.24 741.57h859.47" stroke="#000" stroke-width="2" fill="none"/><path d="M174.24 409.03h859.47v157.3H174.25z" fill="none"/><path d="M174.24 566.33h859.47M174.24 921.35V741.57m0 0V566.33m0 0v-157.3m0 0h859.47v157.3m0 175.24V566.33M174.25 921.35h859.47V741.57" stroke="#000" stroke-width="2" fill="none"/><use xlink:href="#b" transform="matrix(6.123233995736766e-17,-1,1,6.123233995736766e-17,174.24009461856926,566.3334251898141) translate(26.761533463287847 23.27485380116959)"/><use xlink:href="#c" transform="matrix(6.123233995736766e-17,-1,1,6.123233995736766e-17,174.24009461856926,566.3334251898141) translate(95.85185185185185 23.27485380116959)"/><use xlink:href="#d" transform="matrix(6.123233995736766e-17,-1,1,6.123233995736766e-17,134.24009461856926,921.3483146067413) translate(232.89376218323588 23.27485380116959)"/><use xlink:href="#e" transform="matrix(6.123233995736766e-17,-1,1,6.123233995736766e-17,174.24009461856926,741.5730337078649) translate(28.506822612085784 23.27485380116959)"/><use xlink:href="#c" transform="matrix(6.123233995736766e-17,-1,1,6.123233995736766e-17,174.24009461856926,741.5730337078649) translate(112.10656270305392 23.27485380116959)"/><use xlink:href="#f" transform="matrix(6.123233995736766e-17,-1,1,6.123233995736766e-17,174.24009461856926,921.3483146067413) translate(76.80961663417804 23.27485380116959)"/><g stroke="#000" stroke-width="2"><path d="M174.54 1152.88h-40v-186.6h40" fill-opacity="0"/><path d="M174.54 1152.88h858.87v-186.6H174.55M174.54 1152.88v-186.6" fill="none"/></g><use xlink:href="#g" transform="matrix(6.123233995736766e-17,-1,1,6.123233995736766e-17,174.53577764636316,1152.877040319303) translate(80.78719948018194 23.27485380116959)"/><use xlink:href="#h" transform="matrix(6.123233995736766e-17,-1,1,6.123233995736766e-17,134.53577764636316,1152.877040319303) translate(36.28102664067577 23.27485380116959)"/><use xlink:href="#i" transform="matrix(6.123233995736766e-17,-1,1,6.123233995736766e-17,134.53577764636316,1152.877040319303) translate(88.041910331384 23.27485380116959)"/><path d="M334.42 1059.58c0 16.57-13.43 30-30 30s-30-13.43-30-30c0-16.56 13.43-30 30-30s30 13.44 30 30z" stroke="#000" stroke-width="2" fill-opacity="0"/><path d="M304.42 1041.58l-15 33 15-18 15 18z" stroke="#000" stroke-width="2" fill="#fff"/><use xlink:href="#j" transform="matrix(1,0,0,1,274.4234180958342,1089.5845875753816) translate(19.106562703053932 13.274853801169591)"/><path d="M224.72 768.63h160v120h-160z" stroke="#000" stroke-width="3" fill-opacity="0"/><use xlink:href="#k" transform="matrix(1,0,0,1,224.7191011236282,768.629116900181) translate(19.555 63.15)"/><use xlink:href="#l" transform="matrix(1,0,0,1,224.7191011236282,768.629116900181) translate(55.555 63.15)"/><path d="M304.42 1027.58v-68.83c0-.08.07-.14.15-.14.08 0 .15-.06.15-.14v-51.33" stroke="#666" stroke-width="2" fill="none"/><path d="M305.42 1028.66l-.97-.08-1.03.04v-1.06h2z" fill="#666"/><path d="M304.72 891.87l4.63 14.26h-9.27z" stroke="#666" stroke-width="2" fill="#666"/><path d="M224.72 584.27h160v120h-160z" stroke="#000" stroke-width="3" fill-opacity="0"/><use xlink:href="#m" transform="matrix(1,0,0,1,224.7191011236282,584.2696629213169) translate(45.55499999999999 51.9)"/><use xlink:href="#n" transform="matrix(1,0,0,1,224.7191011236282,584.2696629213169) translate(109.45500000000001 51.9)"/><use xlink:href="#o" transform="matrix(1,0,0,1,224.7191011236282,584.2696629213169) translate(29.054999999999993 73.5)"/><use xlink:href="#p" transform="matrix(1,0,0,1,224.7191011236282,584.2696629213169) translate(113.005 73.5)"/><path d="M304.72 768.13v-47.48" stroke="#666" fill="none"/><path fill="#666"/><path d="M309.35 720.15h-9.27l4.64-14.26z" fill="#666"/><path d="M310.04 720.65H299.4l4.83-14.88h.98zm-9.27-1h7.9l-3.95-12.14z" fill="#666"/><path d="M334.72 220h160v120h-160z" stroke="#000" stroke-width="2" fill-opacity="0"/><use xlink:href="#q" transform="matrix(1,0,0,1,334.7191011236283,220.00781006023976) translate(27.529999999999994 63.15)"/><use xlink:href="#r" transform="matrix(1,0,0,1,334.7191011236283,220.00781006023976) translate(78.53 63.15)"/><path d="M385.72 644.27h23c3.3 0 6-2.7 6-6V359.5" stroke="#666" stroke-width="2" fill="none"/><path fill="#666"/><path d="M414.72 344.24l4.63 14.27h-9.27z" stroke="#666" stroke-width="2" fill="#666"/><path d="M554.72 479.44c0 16.57-13.43 30-30 30s-30-13.43-30-30 13.43-30 30-30 30 13.43 30 30z" stroke="#000" stroke-width="2" fill-opacity="0"/><use xlink:href="#s" transform="matrix(1,0,0,1,494.7191011236283,509.438202247191) translate(4.528914879792072 13.274853801169591)"/><path d="M447.33 342v131.44c0 3.3 2.7 6 6 6h21.9" stroke="#666" stroke-width="2" fill="none"/><path d="M448.33 342.03h-2V341h2z" fill="#666"/><path d="M490.48 479.44l-14.26 4.63v-9.27z" stroke="#666" stroke-width="2" fill="#666"/><path d="M556.72 479.44h30.1" stroke="#666" stroke-width="2" fill="none"/><path d="M556.75 480.44h-1.1l.07-.98-.04-1.02h1.07z" fill="#666"/><path d="M602.1 479.44l-14.28 4.63v-9.27z" stroke="#666" stroke-width="2" fill="#666"/><path d="M606.74 479.44l37.5-37.5 37.5 37.5-37.5 37.5z" stroke="#000" stroke-width="2" fill-opacity="0"/><path d="M569.33 509.44h149.83v52.36H569.33z" stroke="#000" stroke-opacity="0" fill="#fff" fill-opacity="0"/><use xlink:href="#t" transform="matrix(1,0,0,1,574.3258426966293,514.4382022471909) translate(41.82261208576998 14.950292397660819)"/><use xlink:href="#u" transform="matrix(1,0,0,1,574.3258426966293,514.4382022471909) translate(28.22287199480182 34.599415204678365)"/><path d="M684.16 479.44h41.53c3.3 0 6-2.7 6-6V359.5" stroke="#666" stroke-width="2" fill="none"/><path d="M684.18 480.44h-2.02l1-1-1-1h2.02z" fill="#666"/><path d="M731.7 344.24l4.62 14.27h-9.27z" stroke="#666" stroke-width="2" fill="#666"/><path d="M651.7 220h160v120h-160z" stroke="#000" stroke-width="2" fill-opacity="0"/><use xlink:href="#v" transform="matrix(1,0,0,1,651.6853932584269,220.00781006023976) translate(21.029999999999994 51.9)"/><use xlink:href="#w" transform="matrix(1,0,0,1,651.6853932584269,220.00781006023976) translate(70.03 51.9)"/><use xlink:href="#x" transform="matrix(1,0,0,1,651.6853932584269,220.00781006023976) translate(44.029999999999994 73.5)"/><path d="M869 479.44c0 16.57-13.44 30-30 30-16.58 0-30-13.43-30-30s13.42-30 30-30c16.56 0 30 13.43 30 30z" stroke="#000" stroke-width="2" fill-opacity="0"/><g><use xlink:href="#y" transform="matrix(1,0,0,1,808.9887640449438,509.43820224714) translate(0.8901884340480848 13.099415204678364)"/><use xlink:href="#z" transform="matrix(1,0,0,1,808.9887640449438,509.43820224714) translate(1.3677712800519828 32.748538011695906)"/></g><path d="M771.63 342v131.44c0 3.3 2.68 6 6 6h11.86" stroke="#666" stroke-width="2" fill="none"/><path d="M772.63 342.03h-2V341h2z" fill="#666"/><path d="M804.75 479.44l-14.26 4.63v-9.27z" stroke="#666" stroke-width="2" fill="#666"/><path d="M831.46 584.27h160v120h-160z" stroke="#000" stroke-width="3" fill-opacity="0"/><g><use xlink:href="#A" transform="matrix(1,0,0,1,831.4606741573033,584.2696629213169) translate(39.529999999999994 51.9)"/><use xlink:href="#B" transform="matrix(1,0,0,1,831.4606741573033,584.2696629213169) translate(21.529999999999994 73.5)"/><use xlink:href="#x" transform="matrix(1,0,0,1,831.4606741573033,584.2696629213169) translate(66.53 73.5)"/></g><path d="M871 479.44h34.46c3.3 0 6 2.68 6 6v80.33" stroke="#666" stroke-width="2" fill="none"/><path d="M871.02 480.44h-1.1l.07-.98-.05-1.02h1.07z" fill="#666"/><path d="M911.46 581.03l-4.63-14.26h9.27z" stroke="#666" stroke-width="2" fill="#666"/><path d="M336.42 1059.58h128.3c3.32 0 6-2.68 6-6V429.36c0-3.3 2.7-6 6-6h138.7c3.3 0 6 2.7 6 6v15.5" stroke="#666" stroke-width="2" fill="none"/><path d="M336.45 1060.58h-1.1l.07-.97-.03-1.02h1.05z" fill="#666"/><path d="M621.4 460.12l-4.63-14.26h9.27z" stroke="#666" stroke-width="2" fill="#666"/><path d="M524.72 510.94v56.95" stroke="#000" stroke-opacity="0" fill="none"/><path d="M524.72 582.65l-4.64-14.26h9.27z" stroke="#000" stroke-opacity="0" fill-opacity="0"/><path d="M304.42 1091.1v61.06" stroke="#000" stroke-opacity="0" fill="none"/><path d="M304.42 1166.92l-4.63-14.26h9.26z" stroke="#000" stroke-opacity="0" fill-opacity="0"/><defs><path d="M160-131c35 5 61 23 61 61C221 17 115-2 30 0v-248c76 3 177-17 177 60 0 33-19 50-47 57zm-97-11c50-1 110 9 110-42 0-47-63-36-110-37v79zm0 115c55-2 124 14 124-45 0-56-70-42-124-44v89" id="C"/><path d="M24 0v-261h32V0H24" id="D"/><path d="M100-194c62-1 85 37 85 99 1 63-27 99-86 99S16-35 15-95c0-66 28-99 85-99zM99-20c44 1 53-31 53-75 0-43-8-75-51-75s-53 32-53 75 10 74 51 75" id="E"/><path d="M96-169c-40 0-48 33-48 73s9 75 48 75c24 0 41-14 43-38l32 2c-6 37-31 61-74 61-59 0-76-41-82-99-10-93 101-131 147-64 4 7 5 14 7 22l-32 3c-4-21-16-35-41-35" id="F"/><path d="M143 0L79-87 56-68V0H24v-261h32v163l83-92h37l-77 82L181 0h-38" id="G"/><path d="M106-169C34-169 62-67 57 0H25v-261h32l-1 103c12-21 28-36 61-36 89 0 53 116 60 194h-32v-121c2-32-8-49-39-48" id="H"/><path d="M141-36C126-15 110 5 73 4 37 3 15-17 15-53c-1-64 63-63 125-63 3-35-9-54-41-54-24 1-41 7-42 31l-33-3c5-37 33-52 76-52 45 0 72 20 72 64v82c-1 20 7 32 28 27v20c-31 9-61-2-59-35zM48-53c0 20 12 33 32 33 41-3 63-29 60-74-43 2-92-5-92 41" id="I"/><path d="M24-231v-30h32v30H24zM24 0v-190h32V0H24" id="J"/><path d="M117-194c89-4 53 116 60 194h-32v-121c0-31-8-49-39-48C34-167 62-67 57 0H25l-1-190h30c1 10-1 24 2 32 11-22 29-35 61-36" id="K"/><g id="a"><use transform="matrix(0.055486197808295175,0,0,0.055486197808295175,0,0)" xlink:href="#C"/><use transform="matrix(0.055486197808295175,0,0,0.055486197808295175,13.316687473990841,0)" xlink:href="#D"/><use transform="matrix(0.055486197808295175,0,0,0.055486197808295175,17.70009710084616,0)" xlink:href="#E"/><use transform="matrix(0.055486197808295175,0,0,0.055486197808295175,28.797336662505195,0)" xlink:href="#F"/><use transform="matrix(0.055486197808295175,0,0,0.055486197808295175,38.784852267998325,0)" xlink:href="#G"/><use transform="matrix(0.055486197808295175,0,0,0.055486197808295175,48.772367873491454,0)" xlink:href="#F"/><use transform="matrix(0.055486197808295175,0,0,0.055486197808295175,58.75988347898459,0)" xlink:href="#H"/><use transform="matrix(0.055486197808295175,0,0,0.055486197808295175,69.85712304064361,0)" xlink:href="#I"/><use transform="matrix(0.055486197808295175,0,0,0.055486197808295175,80.95436260230265,0)" xlink:href="#J"/><use transform="matrix(0.055486197808295175,0,0,0.055486197808295175,85.33777222915798,0)" xlink:href="#K"/></g><path d="M30-248c87 1 191-15 191 75 0 78-77 80-158 76V0H30v-248zm33 125c57 0 124 11 124-50 0-59-68-47-124-48v98" id="L"/><path d="M179-190L93 31C79 59 56 82 12 73V49c39 6 53-20 64-50L1-190h34L92-34l54-156h33" id="M"/><path d="M210-169c-67 3-38 105-44 169h-31v-121c0-29-5-50-35-48C34-165 62-65 56 0H25l-1-190h30c1 10-1 24 2 32 10-44 99-50 107 0 11-21 27-35 58-36 85-2 47 119 55 194h-31v-121c0-29-5-49-35-48" id="N"/><path d="M100-194c63 0 86 42 84 106H49c0 40 14 67 53 68 26 1 43-12 49-29l28 8c-11 28-37 45-77 45C44 4 14-33 15-96c1-61 26-98 85-98zm52 81c6-60-76-77-97-28-3 7-6 17-6 28h103" id="O"/><path d="M59-47c-2 24 18 29 38 22v24C64 9 27 4 27-40v-127H5v-23h24l9-43h21v43h35v23H59v120" id="P"/><g id="b"><use transform="matrix(0.04548408057179987,0,0,0.04548408057179987,0,0)" xlink:href="#L"/><use transform="matrix(0.04548408057179987,0,0,0.04548408057179987,10.916179337231968,0)" xlink:href="#I"/><use transform="matrix(0.04548408057179987,0,0,0.04548408057179987,20.01299545159194,0)" xlink:href="#M"/><use transform="matrix(0.04548408057179987,0,0,0.04548408057179987,28.20012995451592,0)" xlink:href="#N"/><use transform="matrix(0.04548408057179987,0,0,0.04548408057179987,41.79987004548408,0)" xlink:href="#O"/><use transform="matrix(0.04548408057179987,0,0,0.04548408057179987,50.89668615984405,0)" xlink:href="#K"/><use transform="matrix(0.04548408057179987,0,0,0.04548408057179987,59.993502274204026,0)" xlink:href="#P"/></g><path d="M114-163C36-179 61-72 57 0H25l-1-190h30c1 12-1 29 2 39 6-27 23-49 58-41v29" id="Q"/><g id="c"><use transform="matrix(0.04548408057179987,0,0,0.04548408057179987,0,0)" xlink:href="#D"/><use transform="matrix(0.04548408057179987,0,0,0.04548408057179987,3.5932423651721894,0)" xlink:href="#I"/><use transform="matrix(0.04548408057179987,0,0,0.04548408057179987,12.690058479532164,0)" xlink:href="#M"/><use transform="matrix(0.04548408057179987,0,0,0.04548408057179987,20.87719298245614,0)" xlink:href="#O"/><use transform="matrix(0.04548408057179987,0,0,0.04548408057179987,29.97400909681611,0)" xlink:href="#Q"/></g><path d="M197 0v-115H63V0H30v-248h33v105h134v-105h34V0h-34" id="R"/><path d="M140-251c81 0 123 46 123 126C263-46 219 4 140 4 59 4 17-45 17-125s42-126 123-126zm0 227c63 0 89-41 89-101s-29-99-89-99c-61 0-89 39-89 99S79-25 140-24" id="S"/><path d="M233-177c-1 41-23 64-60 70L243 0h-38l-65-103H63V0H30v-248c88 3 205-21 203 71zM63-129c60-2 137 13 137-47 0-61-80-42-137-45v92" id="T"/><g id="d"><use transform="matrix(0.04548408057179987,0,0,0.04548408057179987,0,0)" xlink:href="#R"/><use transform="matrix(0.04548408057179987,0,0,0.04548408057179987,11.780376868096166,0)" xlink:href="#S"/><use transform="matrix(0.04548408057179987,0,0,0.04548408057179987,24.515919428200128,0)" xlink:href="#L"/><use transform="matrix(0.04548408057179987,0,0,0.04548408057179987,35.432098765432094,0)" xlink:href="#T"/></g><path d="M240 0l2-218c-23 76-54 145-80 218h-23L58-218 59 0H30v-248h44l77 211c21-75 51-140 76-211h43V0h-30" id="U"/><path d="M135-143c-3-34-86-38-87 0 15 53 115 12 119 90S17 21 10-45l28-5c4 36 97 45 98 0-10-56-113-15-118-90-4-57 82-63 122-42 12 7 21 19 24 35" id="V"/><path d="M177-190C167-65 218 103 67 71c-23-6-38-20-44-43l32-5c15 47 100 32 89-28v-30C133-14 115 1 83 1 29 1 15-40 15-95c0-56 16-97 71-98 29-1 48 16 59 35 1-10 0-23 2-32h30zM94-22c36 0 50-32 50-73 0-42-14-75-50-75-39 0-46 34-46 75s6 73 46 73" id="W"/><g id="e"><use transform="matrix(0.04548408057179987,0,0,0.04548408057179987,0,0)" xlink:href="#U"/><use transform="matrix(0.04548408057179987,0,0,0.04548408057179987,13.59974009096816,0)" xlink:href="#O"/><use transform="matrix(0.04548408057179987,0,0,0.04548408057179987,22.696556205328136,0)" xlink:href="#V"/><use transform="matrix(0.04548408057179987,0,0,0.04548408057179987,30.88369070825211,0)" xlink:href="#V"/><use transform="matrix(0.04548408057179987,0,0,0.04548408057179987,39.070825211176086,0)" xlink:href="#I"/><use transform="matrix(0.04548408057179987,0,0,0.04548408057179987,48.16764132553606,0)" xlink:href="#W"/><use transform="matrix(0.04548408057179987,0,0,0.04548408057179987,57.264457439896034,0)" xlink:href="#J"/><use transform="matrix(0.04548408057179987,0,0,0.04548408057179987,60.85769980506822,0)" xlink:href="#K"/><use transform="matrix(0.04548408057179987,0,0,0.04548408057179987,69.95451591942819,0)" xlink:href="#W"/></g><path d="M205 0l-28-72H64L36 0H1l101-248h38L239 0h-34zm-38-99l-47-123c-12 45-31 82-46 123h93" id="X"/><path d="M33 0v-248h34V0H33" id="Y"/><g id="f"><use transform="matrix(0.04548408057179987,0,0,0.04548408057179987,0,0)" xlink:href="#X"/><use transform="matrix(0.04548408057179987,0,0,0.04548408057179987,10.916179337231968,0)" xlink:href="#L"/><use transform="matrix(0.04548408057179987,0,0,0.04548408057179987,21.832358674463936,0)" xlink:href="#Y"/></g><path d="M212-179c-10-28-35-45-73-45-59 0-87 40-87 99 0 60 29 101 89 101 43 0 62-24 78-52l27 14C228-24 195 4 139 4 59 4 22-46 18-125c-6-104 99-153 187-111 19 9 31 26 39 46" id="Z"/><path d="M30 0v-248h33v221h125V0H30" id="aa"/><g id="g"><use transform="matrix(0.04548408057179987,0,0,0.04548408057179987,0,0)" xlink:href="#Z"/><use transform="matrix(0.04548408057179987,0,0,0.04548408057179987,11.780376868096166,0)" xlink:href="#aa"/><use transform="matrix(0.04548408057179987,0,0,0.04548408057179987,20.87719298245614,0)" xlink:href="#Y"/></g><g id="h"><use transform="matrix(0.04548408057179987,0,0,0.04548408057179987,0,0)" xlink:href="#R"/><use transform="matrix(0.04548408057179987,0,0,0.04548408057179987,11.780376868096166,0)" xlink:href="#S"/><use transform="matrix(0.04548408057179987,0,0,0.04548408057179987,24.515919428200128,0)" xlink:href="#L"/><use transform="matrix(0.04548408057179987,0,0,0.04548408057179987,35.432098765432094,0)" xlink:href="#T"/></g><path d="M101-234c-31-9-42 10-38 44h38v23H63V0H32v-167H5v-23h27c-7-52 17-82 69-68v24" id="ab"/><g id="i"><use transform="matrix(0.04548408057179987,0,0,0.04548408057179987,0,0)" xlink:href="#J"/><use transform="matrix(0.04548408057179987,0,0,0.04548408057179987,3.5932423651721894,0)" xlink:href="#K"/><use transform="matrix(0.04548408057179987,0,0,0.04548408057179987,12.690058479532164,0)" xlink:href="#P"/><use transform="matrix(0.04548408057179987,0,0,0.04548408057179987,17.238466536712153,0)" xlink:href="#O"/><use transform="matrix(0.04548408057179987,0,0,0.04548408057179987,26.335282651072127,0)" xlink:href="#Q"/><use transform="matrix(0.04548408057179987,0,0,0.04548408057179987,31.747888239116314,0)" xlink:href="#ab"/><use transform="matrix(0.04548408057179987,0,0,0.04548408057179987,36.2962962962963,0)" xlink:href="#I"/><use transform="matrix(0.04548408057179987,0,0,0.04548408057179987,45.39311241065627,0)" xlink:href="#F"/><use transform="matrix(0.04548408057179987,0,0,0.04548408057179987,53.58024691358025,0)" xlink:href="#O"/></g><path fill="#666" d="M33 0v-248h34V0H33" id="ac"/><path fill="#666" d="M117-194c89-4 53 116 60 194h-32v-121c0-31-8-49-39-48C34-167 62-67 57 0H25l-1-190h30c1 10-1 24 2 32 11-22 29-35 61-36" id="ad"/><path fill="#666" d="M24-231v-30h32v30H24zM24 0v-190h32V0H24" id="ae"/><path fill="#666" d="M59-47c-2 24 18 29 38 22v24C64 9 27 4 27-40v-127H5v-23h24l9-43h21v43h35v23H59v120" id="af"/><g id="j"><use transform="matrix(0.04548408057179987,0,0,0.04548408057179987,0,0)" xlink:href="#ac"/><use transform="matrix(0.04548408057179987,0,0,0.04548408057179987,4.548408057179987,0)" xlink:href="#ad"/><use transform="matrix(0.04548408057179987,0,0,0.04548408057179987,13.645224171539963,0)" xlink:href="#ae"/><use transform="matrix(0.04548408057179987,0,0,0.04548408057179987,17.238466536712153,0)" xlink:href="#af"/></g><path d="M194 0L95-120 63-95V0H30v-248h33v124l119-124h40L117-140 236 0h-42" id="ag"/><g id="k"><use transform="matrix(0.05,0,0,0.05,0,0)" xlink:href="#ag"/><use transform="matrix(0.05,0,0,0.05,12,0)" xlink:href="#O"/><use transform="matrix(0.05,0,0,0.05,22,0)" xlink:href="#M"/></g><g id="l"><use transform="matrix(0.05,0,0,0.05,0,0)" xlink:href="#W"/><use transform="matrix(0.05,0,0,0.05,10,0)" xlink:href="#O"/><use transform="matrix(0.05,0,0,0.05,20,0)" xlink:href="#K"/><use transform="matrix(0.05,0,0,0.05,30,0)" xlink:href="#O"/><use transform="matrix(0.05,0,0,0.05,40,0)" xlink:href="#Q"/><use transform="matrix(0.05,0,0,0.05,45.95,0)" xlink:href="#I"/><use transform="matrix(0.05,0,0,0.05,55.95,0)" xlink:href="#P"/><use transform="matrix(0.05,0,0,0.05,60.95,0)" xlink:href="#J"/><use transform="matrix(0.05,0,0,0.05,64.9,0)" xlink:href="#E"/><use transform="matrix(0.05,0,0,0.05,74.9,0)" xlink:href="#K"/></g><path d="M84 4C-5 8 30-112 23-190h32v120c0 31 7 50 39 49 72-2 45-101 50-169h31l1 190h-30c-1-10 1-25-2-33-11 22-28 36-60 37" id="ah"/><path d="M115-194c53 0 69 39 70 98 0 66-23 100-70 100C84 3 66-7 56-30L54 0H23l1-261h32v101c10-23 28-34 59-34zm-8 174c40 0 45-34 45-75 0-40-5-75-45-74-42 0-51 32-51 76 0 43 10 73 51 73" id="ai"/><g id="m"><use transform="matrix(0.05,0,0,0.05,0,0)" xlink:href="#L"/><use transform="matrix(0.05,0,0,0.05,12,0)" xlink:href="#ah"/><use transform="matrix(0.05,0,0,0.05,22,0)" xlink:href="#ai"/><use transform="matrix(0.05,0,0,0.05,32,0)" xlink:href="#D"/><use transform="matrix(0.05,0,0,0.05,35.95,0)" xlink:href="#J"/><use transform="matrix(0.05,0,0,0.05,39.900000000000006,0)" xlink:href="#V"/><use transform="matrix(0.05,0,0,0.05,48.900000000000006,0)" xlink:href="#H"/></g><path d="M0 4l72-265h28L28 4H0" id="aj"/><use transform="matrix(0.05,0,0,0.05,0,0)" xlink:href="#aj" id="n"/><path d="M85-194c31 0 48 13 60 33l-1-100h32l1 261h-30c-2-10 0-23-3-31C134-8 116 4 85 4 32 4 16-35 15-94c0-66 23-100 70-100zm9 24c-40 0-46 34-46 75 0 40 6 74 45 74 42 0 51-32 51-76 0-42-9-74-50-73" id="ak"/><g id="o"><use transform="matrix(0.05,0,0,0.05,0,0)" xlink:href="#ai"/><use transform="matrix(0.05,0,0,0.05,10,0)" xlink:href="#Q"/><use transform="matrix(0.05,0,0,0.05,15.949999999999998,0)" xlink:href="#E"/><use transform="matrix(0.05,0,0,0.05,25.950000000000003,0)" xlink:href="#I"/><use transform="matrix(0.05,0,0,0.05,35.95,0)" xlink:href="#ak"/><use transform="matrix(0.05,0,0,0.05,45.95,0)" xlink:href="#F"/><use transform="matrix(0.05,0,0,0.05,54.95,0)" xlink:href="#I"/><use transform="matrix(0.05,0,0,0.05,64.95,0)" xlink:href="#V"/><use transform="matrix(0.05,0,0,0.05,73.95,0)" xlink:href="#P"/></g><path d="M30-248c118-7 216 8 213 122C240-48 200 0 122 0H30v-248zM63-27c89 8 146-16 146-99s-60-101-146-95v194" id="al"/><g id="p"><use transform="matrix(0.05,0,0,0.05,0,0)" xlink:href="#Y"/><use transform="matrix(0.05,0,0,0.05,5,0)" xlink:href="#al"/></g><path d="M185-189c-5-48-123-54-124 2 14 75 158 14 163 119 3 78-121 87-175 55-17-10-28-26-33-46l33-7c5 56 141 63 141-1 0-78-155-14-162-118-5-82 145-84 179-34 5 7 8 16 11 25" id="am"/><g id="q"><use transform="matrix(0.05,0,0,0.05,0,0)" xlink:href="#am"/><use transform="matrix(0.05,0,0,0.05,12,0)" xlink:href="#P"/><use transform="matrix(0.05,0,0,0.05,17,0)" xlink:href="#I"/><use transform="matrix(0.05,0,0,0.05,27,0)" xlink:href="#G"/><use transform="matrix(0.05,0,0,0.05,36,0)" xlink:href="#O"/></g><g id="r"><use transform="matrix(0.05,0,0,0.05,0,0)" xlink:href="#N"/><use transform="matrix(0.05,0,0,0.05,14.950000000000001,0)" xlink:href="#E"/><use transform="matrix(0.05,0,0,0.05,24.950000000000003,0)" xlink:href="#K"/><use transform="matrix(0.05,0,0,0.05,34.95,0)" xlink:href="#O"/><use transform="matrix(0.05,0,0,0.05,44.95,0)" xlink:href="#M"/></g><g id="s"><use transform="matrix(0.04548408057179987,0,0,0.04548408057179987,0,0)" xlink:href="#am"/><use transform="matrix(0.04548408057179987,0,0,0.04548408057179987,10.916179337231968,0)" xlink:href="#P"/><use transform="matrix(0.04548408057179987,0,0,0.04548408057179987,15.464587394411955,0)" xlink:href="#I"/><use transform="matrix(0.04548408057179987,0,0,0.04548408057179987,24.561403508771935,0)" xlink:href="#G"/><use transform="matrix(0.04548408057179987,0,0,0.04548408057179987,32.748538011695906,0)" xlink:href="#O"/><use transform="matrix(0.04548408057179987,0,0,0.04548408057179987,41.84535412605588,0)" xlink:href="#ak"/></g><g id="t"><use transform="matrix(0.04548408057179987,0,0,0.04548408057179987,0,0)" xlink:href="#Z"/><use transform="matrix(0.04548408057179987,0,0,0.04548408057179987,11.780376868096166,0)" xlink:href="#H"/><use transform="matrix(0.04548408057179987,0,0,0.04548408057179987,20.87719298245614,0)" xlink:href="#E"/><use transform="matrix(0.04548408057179987,0,0,0.04548408057179987,29.97400909681611,0)" xlink:href="#E"/><use transform="matrix(0.04548408057179987,0,0,0.04548408057179987,39.070825211176086,0)" xlink:href="#V"/><use transform="matrix(0.04548408057179987,0,0,0.04548408057179987,47.25795971410006,0)" xlink:href="#O"/></g><path d="M115-194c55 1 70 41 70 98S169 2 115 4C84 4 66-9 55-30l1 105H24l-1-265h31l2 30c10-21 28-34 59-34zm-8 174c40 0 45-34 45-75s-6-73-45-74c-42 0-51 32-51 76 0 43 10 73 51 73" id="an"/><g id="u"><use transform="matrix(0.04548408057179987,0,0,0.04548408057179987,0,0)" xlink:href="#an"/><use transform="matrix(0.04548408057179987,0,0,0.04548408057179987,9.096816114359974,0)" xlink:href="#I"/><use transform="matrix(0.04548408057179987,0,0,0.04548408057179987,18.19363222871995,0)" xlink:href="#Q"/><use transform="matrix(0.04548408057179987,0,0,0.04548408057179987,23.606237816764132,0)" xlink:href="#P"/><use transform="matrix(0.04548408057179987,0,0,0.04548408057179987,28.15464587394412,0)" xlink:href="#J"/><use transform="matrix(0.04548408057179987,0,0,0.04548408057179987,31.747888239116307,0)" xlink:href="#F"/><use transform="matrix(0.04548408057179987,0,0,0.04548408057179987,39.93502274204028,0)" xlink:href="#J"/><use transform="matrix(0.04548408057179987,0,0,0.04548408057179987,43.52826510721247,0)" xlink:href="#an"/><use transform="matrix(0.04548408057179987,0,0,0.04548408057179987,52.625081221572444,0)" xlink:href="#I"/><use transform="matrix(0.04548408057179987,0,0,0.04548408057179987,61.72189733593242,0)" xlink:href="#K"/><use transform="matrix(0.04548408057179987,0,0,0.04548408057179987,70.81871345029239,0)" xlink:href="#P"/><use transform="matrix(0.04548408057179987,0,0,0.04548408057179987,75.36712150747238,0)" xlink:href="#V"/></g><g id="v"><use transform="matrix(0.05,0,0,0.05,0,0)" xlink:href="#S"/><use transform="matrix(0.05,0,0,0.05,14,0)" xlink:href="#an"/><use transform="matrix(0.05,0,0,0.05,24,0)" xlink:href="#O"/><use transform="matrix(0.05,0,0,0.05,34,0)" xlink:href="#K"/></g><g id="w"><use transform="matrix(0.05,0,0,0.05,0,0)" xlink:href="#an"/><use transform="matrix(0.05,0,0,0.05,10,0)" xlink:href="#I"/><use transform="matrix(0.05,0,0,0.05,20,0)" xlink:href="#M"/><use transform="matrix(0.05,0,0,0.05,29,0)" xlink:href="#N"/><use transform="matrix(0.05,0,0,0.05,43.95,0)" xlink:href="#O"/><use transform="matrix(0.05,0,0,0.05,53.95,0)" xlink:href="#K"/><use transform="matrix(0.05,0,0,0.05,63.95,0)" xlink:href="#P"/></g><g id="x"><use transform="matrix(0.05,0,0,0.05,0,0)" xlink:href="#F"/><use transform="matrix(0.05,0,0,0.05,9,0)" xlink:href="#H"/><use transform="matrix(0.05,0,0,0.05,19,0)" xlink:href="#I"/><use transform="matrix(0.05,0,0,0.05,29,0)" xlink:href="#K"/><use transform="matrix(0.05,0,0,0.05,39,0)" xlink:href="#K"/><use transform="matrix(0.05,0,0,0.05,49,0)" xlink:href="#O"/><use transform="matrix(0.05,0,0,0.05,59,0)" xlink:href="#D"/><use transform="matrix(0.05,0,0,0.05,62.95,0)" xlink:href="#V"/></g><g id="y"><use transform="matrix(0.04548408057179987,0,0,0.04548408057179987,0,0)" xlink:href="#S"/><use transform="matrix(0.04548408057179987,0,0,0.04548408057179987,12.735542560103962,0)" xlink:href="#an"/><use transform="matrix(0.04548408057179987,0,0,0.04548408057179987,21.832358674463936,0)" xlink:href="#O"/><use transform="matrix(0.04548408057179987,0,0,0.04548408057179987,30.92917478882391,0)" xlink:href="#K"/><use transform="matrix(0.04548408057179987,0,0,0.04548408057179987,40.02599090318388,0)" xlink:href="#O"/><use transform="matrix(0.04548408057179987,0,0,0.04548408057179987,49.122807017543856,0)" xlink:href="#ak"/></g><g id="z"><use transform="matrix(0.04548408057179987,0,0,0.04548408057179987,0,0)" xlink:href="#F"/><use transform="matrix(0.04548408057179987,0,0,0.04548408057179987,8.187134502923977,0)" xlink:href="#H"/><use transform="matrix(0.04548408057179987,0,0,0.04548408057179987,17.28395061728395,0)" xlink:href="#I"/><use transform="matrix(0.04548408057179987,0,0,0.04548408057179987,26.380766731643924,0)" xlink:href="#K"/><use transform="matrix(0.04548408057179987,0,0,0.04548408057179987,35.4775828460039,0)" xlink:href="#K"/><use transform="matrix(0.04548408057179987,0,0,0.04548408057179987,44.57439896036387,0)" xlink:href="#O"/><use transform="matrix(0.04548408057179987,0,0,0.04548408057179987,53.67121507472385,0)" xlink:href="#D"/></g><g id="A"><use transform="matrix(0.05,0,0,0.05,0,0)" xlink:href="#C"/><use transform="matrix(0.05,0,0,0.05,12,0)" xlink:href="#Q"/><use transform="matrix(0.05,0,0,0.05,17.95,0)" xlink:href="#E"/><use transform="matrix(0.05,0,0,0.05,27.950000000000003,0)" xlink:href="#I"/><use transform="matrix(0.05,0,0,0.05,37.95,0)" xlink:href="#ak"/><use transform="matrix(0.05,0,0,0.05,47.95,0)" xlink:href="#F"/><use transform="matrix(0.05,0,0,0.05,56.95,0)" xlink:href="#I"/><use transform="matrix(0.05,0,0,0.05,66.95,0)" xlink:href="#V"/><use transform="matrix(0.05,0,0,0.05,75.95,0)" xlink:href="#P"/></g><g id="B"><use transform="matrix(0.05,0,0,0.05,0,0)" xlink:href="#E"/><use transform="matrix(0.05,0,0,0.05,10,0)" xlink:href="#an"/><use transform="matrix(0.05,0,0,0.05,20,0)" xlink:href="#O"/><use transform="matrix(0.05,0,0,0.05,30,0)" xlink:href="#K"/></g></defs></g></svg>