<svg xmlns="http://www.w3.org/2000/svg" xmlns:xlink="http://www.w3.org/1999/xlink" xmlns:lucid="lucid" width="1655" height="982"><g transform="translate(-63 -82)" lucid:page-tab-id="0_0"><path d="M120 811.84H80V299.52h40" stroke="#000" stroke-width="2" fill="#fff"/><path d="M120 811.84h700V632.07H120zM120 632.07h700V456.83H120z" fill="none"/><path d="M120 632.07h700" stroke="#000" stroke-width="2" fill="none"/><path d="M120 299.52h700v157.3H120z" fill="none"/><path d="M120 456.83h700M120 811.84V632.07m0 0V456.83m0 0v-157.3m0 0h700v157.3m0 175.24V456.83m-700 355h700V632.08" stroke="#000" stroke-width="2" fill="none"/><use xlink:href="#a" transform="matrix(6.123233995736766e-17,-1,1,6.123233995736766e-17,120.00000000000003,456.8256151295743) translate(26.761533463287847 23.27485380116959)"/><use xlink:href="#b" transform="matrix(6.123233995736766e-17,-1,1,6.123233995736766e-17,120.00000000000003,456.8256151295743) translate(95.85185185185185 23.27485380116959)"/><use xlink:href="#c" transform="matrix(6.123233995736766e-17,-1,1,6.123233995736766e-17,80,811.8405045465015) translate(232.89376218323588 23.27485380116959)"/><use xlink:href="#d" transform="matrix(6.123233995736766e-17,-1,1,6.123233995736766e-17,120.00000000000003,632.0652236476251) translate(28.506822612085784 23.27485380116959)"/><use xlink:href="#b" transform="matrix(6.123233995736766e-17,-1,1,6.123233995736766e-17,120.00000000000003,632.0652236476251) translate(112.10656270305392 23.27485380116959)"/><use xlink:href="#e" transform="matrix(6.123233995736766e-17,-1,1,6.123233995736766e-17,120,811.8405045465015) translate(76.80961663417804 23.27485380116959)"/><g stroke="#000" stroke-width="2"><path d="M120.6 1043.37h-40v-186.6h40" fill="#fff"/><path d="M120.6 1043.37H820v-186.6H120.6M120.6 1043.37v-186.6" fill="none"/></g><use xlink:href="#f" transform="matrix(6.123233995736766e-17,-1,1,6.123233995736766e-17,120.59136605558797,1043.3692302590625) translate(80.78719948018194 23.27485380116959)"/><use xlink:href="#g" transform="matrix(6.123233995736766e-17,-1,1,6.123233995736766e-17,80.59136605558797,1043.3692302590625) translate(36.28102664067577 23.27485380116959)"/><use xlink:href="#h" transform="matrix(6.123233995736766e-17,-1,1,6.123233995736766e-17,80.59136605558797,1043.3692302590625) translate(88.041910331384 23.27485380116959)"/><path d="M280.48 950.08c0 16.57-13.43 30-30 30s-30-13.43-30-30 13.43-30 30-30 30 13.43 30 30z" stroke="#000" stroke-width="2" fill="#fff"/><path d="M250.48 932.08l-15 33 15-18 15 18z" stroke="#000" stroke-width="2" fill="#fff"/><use xlink:href="#i" transform="matrix(1,0,0,1,220.47900650505903,980.0767775151414) translate(10.896686159844055 13.099415204678364)"/><use xlink:href="#j" transform="matrix(1,0,0,1,220.47900650505903,980.0767775151414) translate(-3.180636777128001 32.748538011695906)"/><path d="M170.48 480h160v120h-160z" stroke="#000" stroke-width="2" fill="#fff"/><use xlink:href="#k" transform="matrix(1,0,0,1,170.47900650505903,480) translate(23.154999999999994 63.15)"/><use xlink:href="#l" transform="matrix(1,0,0,1,170.47900650505903,480) translate(73.955 63.15)"/><g stroke="#000" stroke-width="2"><path d="M120 260H80V100h40" fill="#fff"/><path d="M120 260h1580V100H120M120 260V100" fill="none"/></g><use xlink:href="#m" transform="matrix(6.123233995736766e-17,-1,1,6.123233995736766e-17,80,260) translate(36.55 23.6)"/><path d="M250.48 918.08V619.5" stroke="#000" stroke-width="2" fill="none"/><path d="M251.48 919.16l-.98-.08-1.02.03v-1.05h2z"/><path d="M250.48 604.24l4.63 14.26h-9.26z" stroke="#000" stroke-width="2"/><path d="M332.48 540h48.02" stroke="#000" stroke-width="2" fill="none"/><path d="M332.5 541h-1.02v-2h1.02z"/><path d="M395.76 540l-14.26 4.64v-9.28z" stroke="#000" stroke-width="2"/><path d="M400 480h160v120H400z" stroke="#000" stroke-width="2" fill="#fff"/><use xlink:href="#n" transform="matrix(1,0,0,1,400,480) translate(13.529999999999996 63.15)"/><use xlink:href="#o" transform="matrix(1,0,0,1,400,480) translate(93.48 63.15)"/><path d="M480 478v-18.5" stroke="#000" stroke-width="2" fill="none"/><path d="M481 479h-2v-1.03h2z"/><path d="M480 444.24l4.64 14.26h-9.28z" stroke="#000" stroke-width="2"/><path d="M400 320h160v120H400z" stroke="#000" stroke-width="2" fill="#fff"/><use xlink:href="#n" transform="matrix(1,0,0,1,400,320) translate(12.529999999999996 51.9)"/><use xlink:href="#p" transform="matrix(1,0,0,1,400,320) translate(92.48 51.9)"/><use xlink:href="#q" transform="matrix(1,0,0,1,400,320) translate(36.05499999999999 73.5)"/><path d="M620 480h160v120H620z" stroke="#000" stroke-width="2" fill="#fff"/><use xlink:href="#r" transform="matrix(1,0,0,1,620,480) translate(20.029999999999994 63.15)"/><use xlink:href="#s" transform="matrix(1,0,0,1,620,480) translate(67.03 63.15)"/><path d="M562 380h26.67v141.5" stroke="#000" stroke-width="2" fill="none"/><path d="M562.03 381H561v-2h1.03z"/><path d="M588.67 536.76l-4.64-14.26h9.27z" stroke="#000" stroke-width="2"/><path d="M900 812.32h-40V300h40" stroke="#000" stroke-width="2" fill="#fff"/><path d="M900 812.32h800V632.54H900zM900 632.54h800V457.3H900z" fill="none"/><path d="M900 632.54h800" stroke="#000" stroke-width="2" fill="none"/><path d="M900 300h800v157.3H900z" fill="none"/><path d="M900 457.3h800M900 812.32V632.54m0 0V457.3m0 0V300m0 0h800v157.3m0 175.24V457.3M900 812.32h800V632.54" stroke="#000" stroke-width="2" fill="none"/><use xlink:href="#a" transform="matrix(6.123233995736766e-17,-1,1,6.123233995736766e-17,900.0000000000002,457.303370786517) translate(24.009746588693957 23.27485380116959)"/><use xlink:href="#t" transform="matrix(6.123233995736766e-17,-1,1,6.123233995736766e-17,900.0000000000002,457.303370786517) translate(93.10006497725796 23.27485380116959)"/><use xlink:href="#c" transform="matrix(6.123233995736766e-17,-1,1,6.123233995736766e-17,860.0000000000002,812.3182602034443) translate(232.89376218323588 23.27485380116959)"/><use xlink:href="#d" transform="matrix(6.123233995736766e-17,-1,1,6.123233995736766e-17,900.0000000000002,632.5429793045678) translate(25.755035737491887 23.27485380116959)"/><use xlink:href="#t" transform="matrix(6.123233995736766e-17,-1,1,6.123233995736766e-17,900.0000000000002,632.5429793045678) translate(109.35477582846002 23.27485380116959)"/><use xlink:href="#e" transform="matrix(6.123233995736766e-17,-1,1,6.123233995736766e-17,900.0000000000002,812.3182602034443) translate(76.80961663417804 23.27485380116959)"/><path d="M781 540h88.5v.48h71" fill="none"/><path d="M781 540h10.67m10.66 0h21.33m10.67 0h21.33m10.66 0h3.18v.48h17.67m10.67 0h21.33m10.66 0h10.67M781.03 540H780" stroke="#000" stroke-width="2" fill="none"/><path d="M955.76 540.48l-14.26 4.63v-9.26z" stroke="#000" stroke-width="2"/><path d="M960 480.48h160v120H960z" stroke="#000" stroke-width="2" fill="#fff"/><use xlink:href="#u" transform="matrix(1,0,0,1,960,480.47775565693155) translate(18.554999999999993 63.15)"/><use xlink:href="#o" transform="matrix(1,0,0,1,960,480.47775565693155) translate(88.45500000000001 63.15)"/><path d="M959 540.48" stroke="#000" stroke-width="2" fill="none"/><path/><path d="M955.76 540.48l-14.26 4.63v-9.26z" stroke="#000" stroke-width="2"/><path d="M1300 540l37.5-37.5L1375 540l-37.5 37.5z" stroke="#000" stroke-width="2" fill="#fff"/><path d="M1322.5 525l30 30m-30 0l30-30" stroke="#000" stroke-width="4" fill="none"/><path d="M1300 397.5l37.5-37.5 37.5 37.5-37.5 37.5z" stroke="#000" stroke-width="2" fill="#fff"/><path d="M1322.5 382.5l30 30m-30 0l30-30" stroke="#000" stroke-width="4" fill="none"/><path d="M1377.4 397.5h42.6v124" stroke="#000" stroke-width="2" fill="none"/><path d="M1377.44 398.5h-2.03l1-1-1-1h2.04z"/><path d="M1420 536.76l-4.64-14.26h9.28z" stroke="#000" stroke-width="2"/><path d="M1260 310.15h158.4v47.4H1260z" stroke="#000" stroke-opacity="0" stroke-width="2" fill-opacity="0"/><use xlink:href="#v" transform="matrix(1,0,0,1,1265,315.1500000000001) translate(6.599999999999994 14.4)"/><use xlink:href="#w" transform="matrix(1,0,0,1,1265,315.1500000000001) translate(88.5 14.4)"/><use xlink:href="#x" transform="matrix(1,0,0,1,1265,315.1500000000001) translate(130.4 14.4)"/><use xlink:href="#y" transform="matrix(1,0,0,1,1265,315.1500000000001) translate(8.574999999999989 36)"/><use xlink:href="#z" transform="matrix(1,0,0,1,1265,315.1500000000001) translate(75.52499999999999 36)"/><path d="M1340 560h160v60h-160z" stroke="#000" stroke-opacity="0" stroke-width="2" fill="#fff" fill-opacity="0"/><use xlink:href="#A" transform="matrix(1,0,0,1,1345,565) translate(11.049999999999997 14.4)"/><use xlink:href="#B" transform="matrix(1,0,0,1,1345,565) translate(71.05 14.4)"/><use xlink:href="#x" transform="matrix(1,0,0,1,1345,565) translate(126.95 14.4)"/><use xlink:href="#C" transform="matrix(1,0,0,1,1345,565) translate(18.075000000000003 36)"/><use xlink:href="#D" transform="matrix(1,0,0,1,1345,565) translate(54.075 36)"/><use xlink:href="#z" transform="matrix(1,0,0,1,1345,565) translate(42.55 57.6)"/><path d="M1300 197.5l37.5-37.5 37.5 37.5-37.5 37.5z" stroke="#000" stroke-width="2" fill="#fff"/><path d="M1322.5 182.5l30 30m-30 0l30-30" stroke="#000" stroke-width="4" fill="none"/><path d="M1220 100h222.5v60H1220z" stroke="#000" stroke-opacity="0" stroke-width="2" fill="#fff" fill-opacity="0"/><use xlink:href="#E" transform="matrix(1,0,0,1,1225,105.00000000000006) translate(4.550000000000011 17.799999999999997)"/><use xlink:href="#F" transform="matrix(1,0,0,1,1225,105.00000000000006) translate(71.55000000000001 17.799999999999997)"/><use xlink:href="#G" transform="matrix(1,0,0,1,1225,105.00000000000006) translate(120.55000000000001 17.799999999999997)"/><use xlink:href="#H" transform="matrix(1,0,0,1,1225,105.00000000000006) translate(139.5 17.799999999999997)"/><use xlink:href="#I" transform="matrix(1,0,0,1,1225,105.00000000000006) translate(70.025 39.4)"/><path d="M1121 540h18.3v.48h.78M1121.03 540H1120" stroke="#000" stroke-width="2" fill="none"/><path d="M1155.35 540.48l-14.27 4.63v-9.26z" stroke="#000" stroke-width="2"/><path d="M1160 540.48l37.5-37.5 37.5 37.5-37.5 37.5z" stroke="#000" stroke-width="2" fill="#fff"/><path d="M1182.5 525.48l30 30m-30 0l30-30" stroke="#000" stroke-width="4" fill="none"/><path d="M1197.5 580.4v60.1" stroke="#000" stroke-width="2" fill="none"/><path d="M1198.5 580.42h-2v-2.03l1 1 1-1z"/><path d="M1197.5 655.76l-4.64-14.26h9.28z" stroke="#000" stroke-width="2"/><path d="M1117.5 660h160v120h-160z" stroke="#000" stroke-width="2" fill="#fff"/><use xlink:href="#J" transform="matrix(1,0,0,1,1117.5,660) translate(11.079999999999993 63.15)"/><use xlink:href="#s" transform="matrix(1,0,0,1,1117.5,660) translate(75.98 63.15)"/><path d="M1236 540h45.5M1236.03 540H1235" stroke="#000" stroke-width="2" fill="none"/><path d="M1296.76 540l-14.26 4.64v-9.28z" stroke="#000" stroke-width="2"/><path d="M1260.67 539V397.5h19.4M1260.67 538.97V540" stroke="#000" stroke-width="2" fill="none"/><path d="M1295.35 397.5l-14.27 4.64v-9.28z" stroke="#000" stroke-width="2"/><path d="M1260.67 397V197.5h19.4M1260.67 396.97V398" stroke="#000" stroke-width="2" fill="none"/><path d="M1295.35 197.5l-14.27 4.64v-9.28z" stroke="#000" stroke-width="2"/><path d="M1376 540h104.5M1376.03 540H1375" stroke="#000" stroke-width="2" fill="none"/><path d="M1495.76 540l-14.26 4.64v-9.28z" stroke="#000" stroke-width="2"/><path d="M1377.4 197.5h42.6V379" stroke="#000" stroke-width="2" fill="none"/><path d="M1377.44 198.5h-2.03l1-1-1-1h2.04z"/><path d="M1420 394.26l-4.64-14.26h9.28z" stroke="#000" stroke-width="2"/><path d="M1500 480.48h160v120h-160z" stroke="#000" stroke-width="2" fill="#fff"/><g><use xlink:href="#K" transform="matrix(1,0,0,1,1500,480.47775565693155) translate(15.579999999999993 40.65)"/><use xlink:href="#L" transform="matrix(1,0,0,1,1500,480.47775565693155) translate(84.48 40.65)"/><use xlink:href="#M" transform="matrix(1,0,0,1,1500,480.47775565693155) translate(110.43 40.65)"/><use xlink:href="#N" transform="matrix(1,0,0,1,1500,480.47775565693155) translate(34.505 62.25)"/><use xlink:href="#O" transform="matrix(1,0,0,1,1500,480.47775565693155) translate(69.505 62.25)"/><use xlink:href="#P" transform="matrix(1,0,0,1,1500,480.47775565693155) translate(86.505 62.25)"/><use xlink:href="#s" transform="matrix(1,0,0,1,1500,480.47775565693155) translate(43.529999999999994 83.85000000000001)"/></g><path d="M1146.25 460h102.5v45h-102.5z" stroke="#000" stroke-opacity="0" stroke-width="2" fill="#fff" fill-opacity="0"/><g><use xlink:href="#Q" transform="matrix(1,0,0,1,1151.25,465) translate(4.074999999999996 21.1)"/></g><path d="M561 540h39.5M561.03 540H560" stroke="#000" stroke-width="2" fill="none"/><path d="M615.76 540l-14.26 4.64v-9.28z" stroke="#000" stroke-width="2"/><path d="M999 830H700V619.5" fill="none"/><path d="M999 830h-10m-9.98 0h-19.98m-10 0h-19.97m-10 0H899.1m-10 0h-19.97m-10 0h-19.97m-10 0H809.2m-10 0h-19.98m-10 0h-19.97m-10 0H719.3m-10 0H700v-10.7m0-10v-19.97m0-10v-19.97m0-10V729.4m0-10v-19.98m0-10v-19.97m0-10V639.5m0-10v-9.98" stroke="#000" stroke-width="2" fill="none"/><path d="M1000 831h-1.03v-2h1.03z"/><path d="M700 604.24l4.64 14.26h-9.28z" stroke="#000" stroke-width="2"/><path d="M1580 602.48V830h-381.5" fill="none"/><path d="M1580 602.48v10.15m0 10.15v20.3m0 10.15v20.3m0 10.15v20.3m0 10.15v20.3m0 10.15v20.3m0 10.15v20.3m0 10.15v20.3m-5.94 4.22h-20.3m-10.15 0h-20.3m-10.14 0h-20.3m-10.15 0h-20.3m-10.14 0h-20.3m-10.15 0h-20.3m-10.14 0h-20.3m-10.15 0h-20.3m-10.14 0h-20.3m-10.15 0h-20.3m-10.15 0h-20.3m-10.15 0h-20.3m-10.15 0h-10.15" stroke="#000" stroke-width="2" fill="none"/><path d="M1581 602.5h-2v-1.02h2z"/><path d="M1183.24 830l14.26-4.64v9.28z" stroke="#000" stroke-width="2"/><path d="M1000 800h180v60h-180z" stroke="#000" stroke-opacity="0" stroke-width="2" fill="#fff" fill-opacity="0"/><g><use xlink:href="#R" transform="matrix(1,0,0,1,1005,805) translate(11.574999999999989 28.6)"/></g><path d="M838 829V545c-2.76 0-5-2.24-5-5s2.24-5 5-5V390h-58.5" fill="none"/><path d="M838 829v-10.52m0-10.52v-21.03m0-10.52v-21.03m0-10.52V723.8m0-10.5v-21.04m0-10.52V660.7m0-10.5v-21.05m0-10.52V597.6m0-10.53v-21.03m0-10.52V545l-2.95-.96-1.8-2.46L833 540l.96-2.95 2.46-1.8L838 535v-9.7m0-9.68v-19.38m0-9.7v-19.37m0-9.7V438.1m0-9.7v-19.38m0-9.7V390h-10.05m-9.7 0H798.9m-9.7 0h-9.68M838 828.97V830" stroke="#000" stroke-width="2" fill="none"/><path d="M764.24 390l14.26-4.64v9.28z" stroke="#000" stroke-width="2"/><path d="M760 356.25c0-6.2-26.86-11.25-60-11.25s-60 5.04-60 11.25V426c0 3.96 26.86 9 60 9s60-5.04 60-11.25z" stroke="#000" stroke-width="2" fill="#fff"/><path d="M760 356.25c0 6.2-26.86 11.25-60 11.25s-60-5.04-60-11.25m120 8.55c0 3.96-26.86 9-60 9s-60-5.04-60-11.25m120 8.55c0 3.96-26.86 9-60 9s-60-5.04-60-11.25" stroke="#000" stroke-width="2" fill="#fff"/><g><use xlink:href="#S" transform="matrix(1,0,0,1,640,385) translate(3.5749999999999957 14.4)"/><use xlink:href="#T" transform="matrix(1,0,0,1,640,385) translate(35.525 36)"/></g><path d="M700 343v-11.67H579.5" stroke="#000" stroke-width="2" fill="none"/><path d="M701 344.03l-1-.03-1 .04v-1.07h2z"/><path d="M564.24 331.33l14.26-4.63v9.27z" stroke="#000" stroke-width="2"/><defs><path fill="#666" d="M30-248c87 1 191-15 191 75 0 78-77 80-158 76V0H30v-248zm33 125c57 0 124 11 124-50 0-59-68-47-124-48v98" id="U"/><path fill="#666" d="M141-36C126-15 110 5 73 4 37 3 15-17 15-53c-1-64 63-63 125-63 3-35-9-54-41-54-24 1-41 7-42 31l-33-3c5-37 33-52 76-52 45 0 72 20 72 64v82c-1 20 7 32 28 27v20c-31 9-61-2-59-35zM48-53c0 20 12 33 32 33 41-3 63-29 60-74-43 2-92-5-92 41" id="V"/><path fill="#666" d="M179-190L93 31C79 59 56 82 12 73V49c39 6 53-20 64-50L1-190h34L92-34l54-156h33" id="W"/><path fill="#666" d="M210-169c-67 3-38 105-44 169h-31v-121c0-29-5-50-35-48C34-165 62-65 56 0H25l-1-190h30c1 10-1 24 2 32 10-44 99-50 107 0 11-21 27-35 58-36 85-2 47 119 55 194h-31v-121c0-29-5-49-35-48" id="X"/><path fill="#666" d="M100-194c63 0 86 42 84 106H49c0 40 14 67 53 68 26 1 43-12 49-29l28 8c-11 28-37 45-77 45C44 4 14-33 15-96c1-61 26-98 85-98zm52 81c6-60-76-77-97-28-3 7-6 17-6 28h103" id="Y"/><path fill="#666" d="M117-194c89-4 53 116 60 194h-32v-121c0-31-8-49-39-48C34-167 62-67 57 0H25l-1-190h30c1 10-1 24 2 32 11-22 29-35 61-36" id="Z"/><path fill="#666" d="M59-47c-2 24 18 29 38 22v24C64 9 27 4 27-40v-127H5v-23h24l9-43h21v43h35v23H59v120" id="aa"/><g id="a"><use transform="matrix(0.04548408057179987,0,0,0.04548408057179987,0,0)" xlink:href="#U"/><use transform="matrix(0.04548408057179987,0,0,0.04548408057179987,10.916179337231968,0)" xlink:href="#V"/><use transform="matrix(0.04548408057179987,0,0,0.04548408057179987,20.01299545159194,0)" xlink:href="#W"/><use transform="matrix(0.04548408057179987,0,0,0.04548408057179987,28.20012995451592,0)" xlink:href="#X"/><use transform="matrix(0.04548408057179987,0,0,0.04548408057179987,41.79987004548408,0)" xlink:href="#Y"/><use transform="matrix(0.04548408057179987,0,0,0.04548408057179987,50.89668615984405,0)" xlink:href="#Z"/><use transform="matrix(0.04548408057179987,0,0,0.04548408057179987,59.993502274204026,0)" xlink:href="#aa"/></g><path fill="#666" d="M24 0v-261h32V0H24" id="ab"/><path fill="#666" d="M114-163C36-179 61-72 57 0H25l-1-190h30c1 12-1 29 2 39 6-27 23-49 58-41v29" id="ac"/><g id="b"><use transform="matrix(0.04548408057179987,0,0,0.04548408057179987,0,0)" xlink:href="#ab"/><use transform="matrix(0.04548408057179987,0,0,0.04548408057179987,3.5932423651721894,0)" xlink:href="#V"/><use transform="matrix(0.04548408057179987,0,0,0.04548408057179987,12.690058479532164,0)" xlink:href="#W"/><use transform="matrix(0.04548408057179987,0,0,0.04548408057179987,20.87719298245614,0)" xlink:href="#Y"/><use transform="matrix(0.04548408057179987,0,0,0.04548408057179987,29.97400909681611,0)" xlink:href="#ac"/></g><path d="M197 0v-115H63V0H30v-248h33v105h134v-105h34V0h-34" id="ad"/><path d="M140-251c81 0 123 46 123 126C263-46 219 4 140 4 59 4 17-45 17-125s42-126 123-126zm0 227c63 0 89-41 89-101s-29-99-89-99c-61 0-89 39-89 99S79-25 140-24" id="ae"/><path d="M30-248c87 1 191-15 191 75 0 78-77 80-158 76V0H30v-248zm33 125c57 0 124 11 124-50 0-59-68-47-124-48v98" id="af"/><path d="M233-177c-1 41-23 64-60 70L243 0h-38l-65-103H63V0H30v-248c88 3 205-21 203 71zM63-129c60-2 137 13 137-47 0-61-80-42-137-45v92" id="ag"/><g id="c"><use transform="matrix(0.04548408057179987,0,0,0.04548408057179987,0,0)" xlink:href="#ad"/><use transform="matrix(0.04548408057179987,0,0,0.04548408057179987,11.780376868096166,0)" xlink:href="#ae"/><use transform="matrix(0.04548408057179987,0,0,0.04548408057179987,24.515919428200128,0)" xlink:href="#af"/><use transform="matrix(0.04548408057179987,0,0,0.04548408057179987,35.432098765432094,0)" xlink:href="#ag"/></g><path fill="#666" d="M240 0l2-218c-23 76-54 145-80 218h-23L58-218 59 0H30v-248h44l77 211c21-75 51-140 76-211h43V0h-30" id="ah"/><path fill="#666" d="M135-143c-3-34-86-38-87 0 15 53 115 12 119 90S17 21 10-45l28-5c4 36 97 45 98 0-10-56-113-15-118-90-4-57 82-63 122-42 12 7 21 19 24 35" id="ai"/><path fill="#666" d="M177-190C167-65 218 103 67 71c-23-6-38-20-44-43l32-5c15 47 100 32 89-28v-30C133-14 115 1 83 1 29 1 15-40 15-95c0-56 16-97 71-98 29-1 48 16 59 35 1-10 0-23 2-32h30zM94-22c36 0 50-32 50-73 0-42-14-75-50-75-39 0-46 34-46 75s6 73 46 73" id="aj"/><path fill="#666" d="M24-231v-30h32v30H24zM24 0v-190h32V0H24" id="ak"/><g id="d"><use transform="matrix(0.04548408057179987,0,0,0.04548408057179987,0,0)" xlink:href="#ah"/><use transform="matrix(0.04548408057179987,0,0,0.04548408057179987,13.59974009096816,0)" xlink:href="#Y"/><use transform="matrix(0.04548408057179987,0,0,0.04548408057179987,22.696556205328136,0)" xlink:href="#ai"/><use transform="matrix(0.04548408057179987,0,0,0.04548408057179987,30.88369070825211,0)" xlink:href="#ai"/><use transform="matrix(0.04548408057179987,0,0,0.04548408057179987,39.070825211176086,0)" xlink:href="#V"/><use transform="matrix(0.04548408057179987,0,0,0.04548408057179987,48.16764132553606,0)" xlink:href="#aj"/><use transform="matrix(0.04548408057179987,0,0,0.04548408057179987,57.264457439896034,0)" xlink:href="#ak"/><use transform="matrix(0.04548408057179987,0,0,0.04548408057179987,60.85769980506822,0)" xlink:href="#Z"/><use transform="matrix(0.04548408057179987,0,0,0.04548408057179987,69.95451591942819,0)" xlink:href="#aj"/></g><path fill="#666" d="M205 0l-28-72H64L36 0H1l101-248h38L239 0h-34zm-38-99l-47-123c-12 45-31 82-46 123h93" id="al"/><path fill="#666" d="M33 0v-248h34V0H33" id="am"/><g id="e"><use transform="matrix(0.04548408057179987,0,0,0.04548408057179987,0,0)" xlink:href="#al"/><use transform="matrix(0.04548408057179987,0,0,0.04548408057179987,10.916179337231968,0)" xlink:href="#U"/><use transform="matrix(0.04548408057179987,0,0,0.04548408057179987,21.832358674463936,0)" xlink:href="#am"/></g><path fill="#666" d="M212-179c-10-28-35-45-73-45-59 0-87 40-87 99 0 60 29 101 89 101 43 0 62-24 78-52l27 14C228-24 195 4 139 4 59 4 22-46 18-125c-6-104 99-153 187-111 19 9 31 26 39 46" id="an"/><path fill="#666" d="M30 0v-248h33v221h125V0H30" id="ao"/><g id="f"><use transform="matrix(0.04548408057179987,0,0,0.04548408057179987,0,0)" xlink:href="#an"/><use transform="matrix(0.04548408057179987,0,0,0.04548408057179987,11.780376868096166,0)" xlink:href="#ao"/><use transform="matrix(0.04548408057179987,0,0,0.04548408057179987,20.87719298245614,0)" xlink:href="#am"/></g><g id="g"><use transform="matrix(0.04548408057179987,0,0,0.04548408057179987,0,0)" xlink:href="#ad"/><use transform="matrix(0.04548408057179987,0,0,0.04548408057179987,11.780376868096166,0)" xlink:href="#ae"/><use transform="matrix(0.04548408057179987,0,0,0.04548408057179987,24.515919428200128,0)" xlink:href="#af"/><use transform="matrix(0.04548408057179987,0,0,0.04548408057179987,35.432098765432094,0)" xlink:href="#ag"/></g><path d="M24-231v-30h32v30H24zM24 0v-190h32V0H24" id="ap"/><path d="M117-194c89-4 53 116 60 194h-32v-121c0-31-8-49-39-48C34-167 62-67 57 0H25l-1-190h30c1 10-1 24 2 32 11-22 29-35 61-36" id="aq"/><path d="M59-47c-2 24 18 29 38 22v24C64 9 27 4 27-40v-127H5v-23h24l9-43h21v43h35v23H59v120" id="ar"/><path d="M100-194c63 0 86 42 84 106H49c0 40 14 67 53 68 26 1 43-12 49-29l28 8c-11 28-37 45-77 45C44 4 14-33 15-96c1-61 26-98 85-98zm52 81c6-60-76-77-97-28-3 7-6 17-6 28h103" id="as"/><path d="M114-163C36-179 61-72 57 0H25l-1-190h30c1 12-1 29 2 39 6-27 23-49 58-41v29" id="at"/><path d="M101-234c-31-9-42 10-38 44h38v23H63V0H32v-167H5v-23h27c-7-52 17-82 69-68v24" id="au"/><path d="M141-36C126-15 110 5 73 4 37 3 15-17 15-53c-1-64 63-63 125-63 3-35-9-54-41-54-24 1-41 7-42 31l-33-3c5-37 33-52 76-52 45 0 72 20 72 64v82c-1 20 7 32 28 27v20c-31 9-61-2-59-35zM48-53c0 20 12 33 32 33 41-3 63-29 60-74-43 2-92-5-92 41" id="av"/><path d="M96-169c-40 0-48 33-48 73s9 75 48 75c24 0 41-14 43-38l32 2c-6 37-31 61-74 61-59 0-76-41-82-99-10-93 101-131 147-64 4 7 5 14 7 22l-32 3c-4-21-16-35-41-35" id="aw"/><g id="h"><use transform="matrix(0.04548408057179987,0,0,0.04548408057179987,0,0)" xlink:href="#ap"/><use transform="matrix(0.04548408057179987,0,0,0.04548408057179987,3.5932423651721894,0)" xlink:href="#aq"/><use transform="matrix(0.04548408057179987,0,0,0.04548408057179987,12.690058479532164,0)" xlink:href="#ar"/><use transform="matrix(0.04548408057179987,0,0,0.04548408057179987,17.238466536712153,0)" xlink:href="#as"/><use transform="matrix(0.04548408057179987,0,0,0.04548408057179987,26.335282651072127,0)" xlink:href="#at"/><use transform="matrix(0.04548408057179987,0,0,0.04548408057179987,31.747888239116314,0)" xlink:href="#au"/><use transform="matrix(0.04548408057179987,0,0,0.04548408057179987,36.2962962962963,0)" xlink:href="#av"/><use transform="matrix(0.04548408057179987,0,0,0.04548408057179987,45.39311241065627,0)" xlink:href="#aw"/><use transform="matrix(0.04548408057179987,0,0,0.04548408057179987,53.58024691358025,0)" xlink:href="#as"/></g><path d="M185-189c-5-48-123-54-124 2 14 75 158 14 163 119 3 78-121 87-175 55-17-10-28-26-33-46l33-7c5 56 141 63 141-1 0-78-155-14-162-118-5-82 145-84 179-34 5 7 8 16 11 25" id="ax"/><path d="M85-194c31 0 48 13 60 33l-1-100h32l1 261h-30c-2-10 0-23-3-31C134-8 116 4 85 4 32 4 16-35 15-94c0-66 23-100 70-100zm9 24c-40 0-46 34-46 75 0 40 6 74 45 74 42 0 51-32 51-76 0-42-9-74-50-73" id="ay"/><g id="i"><use transform="matrix(0.04548408057179987,0,0,0.04548408057179987,0,0)" xlink:href="#ax"/><use transform="matrix(0.04548408057179987,0,0,0.04548408057179987,10.916179337231968,0)" xlink:href="#as"/><use transform="matrix(0.04548408057179987,0,0,0.04548408057179987,20.01299545159194,0)" xlink:href="#aq"/><use transform="matrix(0.04548408057179987,0,0,0.04548408057179987,29.109811565951915,0)" xlink:href="#ay"/></g><path d="M210-169c-67 3-38 105-44 169h-31v-121c0-29-5-50-35-48C34-165 62-65 56 0H25l-1-190h30c1 10-1 24 2 32 10-44 99-50 107 0 11-21 27-35 58-36 85-2 47 119 55 194h-31v-121c0-29-5-49-35-48" id="az"/><path d="M135-143c-3-34-86-38-87 0 15 53 115 12 119 90S17 21 10-45l28-5c4 36 97 45 98 0-10-56-113-15-118-90-4-57 82-63 122-42 12 7 21 19 24 35" id="aA"/><path d="M177-190C167-65 218 103 67 71c-23-6-38-20-44-43l32-5c15 47 100 32 89-28v-30C133-14 115 1 83 1 29 1 15-40 15-95c0-56 16-97 71-98 29-1 48 16 59 35 1-10 0-23 2-32h30zM94-22c36 0 50-32 50-73 0-42-14-75-50-75-39 0-46 34-46 75s6 73 46 73" id="aB"/><g id="j"><use transform="matrix(0.04548408057179987,0,0,0.04548408057179987,0,0)" xlink:href="#az"/><use transform="matrix(0.04548408057179987,0,0,0.04548408057179987,13.59974009096816,0)" xlink:href="#as"/><use transform="matrix(0.04548408057179987,0,0,0.04548408057179987,22.696556205328136,0)" xlink:href="#aA"/><use transform="matrix(0.04548408057179987,0,0,0.04548408057179987,30.88369070825211,0)" xlink:href="#aA"/><use transform="matrix(0.04548408057179987,0,0,0.04548408057179987,39.070825211176086,0)" xlink:href="#av"/><use transform="matrix(0.04548408057179987,0,0,0.04548408057179987,48.16764132553606,0)" xlink:href="#aB"/><use transform="matrix(0.04548408057179987,0,0,0.04548408057179987,57.264457439896034,0)" xlink:href="#as"/></g><path d="M212-179c-10-28-35-45-73-45-59 0-87 40-87 99 0 60 29 101 89 101 43 0 62-24 78-52l27 14C228-24 195 4 139 4 59 4 22-46 18-125c-6-104 99-153 187-111 19 9 31 26 39 46" id="aC"/><path d="M206 0h-36l-40-164L89 0H53L-1-190h32L70-26l43-164h34l41 164 42-164h31" id="aD"/><path d="M24 0v-261h32V0H24" id="aE"/><g id="k"><use transform="matrix(0.05,0,0,0.05,0,0)" xlink:href="#aC"/><use transform="matrix(0.05,0,0,0.05,12.950000000000001,0)" xlink:href="#at"/><use transform="matrix(0.05,0,0,0.05,18.900000000000002,0)" xlink:href="#av"/><use transform="matrix(0.05,0,0,0.05,28.900000000000002,0)" xlink:href="#aD"/><use transform="matrix(0.05,0,0,0.05,41.85,0)" xlink:href="#aE"/></g><path d="M100-194c62-1 85 37 85 99 1 63-27 99-86 99S16-35 15-95c0-66 28-99 85-99zM99-20c44 1 53-31 53-75 0-43-8-75-51-75s-53 32-53 75 10 74 51 75" id="aF"/><path d="M143 0L79-87 56-68V0H24v-261h32v163l83-92h37l-77 82L181 0h-38" id="aG"/><g id="l"><use transform="matrix(0.05,0,0,0.05,0,0)" xlink:href="#aq"/><use transform="matrix(0.05,0,0,0.05,10,0)" xlink:href="#as"/><use transform="matrix(0.05,0,0,0.05,20,0)" xlink:href="#ar"/><use transform="matrix(0.05,0,0,0.05,25,0)" xlink:href="#aD"/><use transform="matrix(0.05,0,0,0.05,37.95,0)" xlink:href="#aF"/><use transform="matrix(0.05,0,0,0.05,47.95,0)" xlink:href="#at"/><use transform="matrix(0.05,0,0,0.05,53.900000000000006,0)" xlink:href="#aG"/></g><path d="M160-131c35 5 61 23 61 61C221 17 115-2 30 0v-248c76 3 177-17 177 60 0 33-19 50-47 57zm-97-11c50-1 110 9 110-42 0-47-63-36-110-37v79zm0 115c55-2 124 14 124-45 0-56-70-42-124-44v89" id="aH"/><path d="M106-169C34-169 62-67 57 0H25v-261h32l-1 103c12-21 28-36 61-36 89 0 53 116 60 194h-32v-121c2-32-8-49-39-48" id="aI"/><g id="m"><use transform="matrix(0.05,0,0,0.05,0,0)" xlink:href="#aH"/><use transform="matrix(0.05,0,0,0.05,12,0)" xlink:href="#aE"/><use transform="matrix(0.05,0,0,0.05,15.949999999999998,0)" xlink:href="#aF"/><use transform="matrix(0.05,0,0,0.05,25.950000000000003,0)" xlink:href="#aw"/><use transform="matrix(0.05,0,0,0.05,34.95,0)" xlink:href="#aG"/><use transform="matrix(0.05,0,0,0.05,43.95,0)" xlink:href="#aw"/><use transform="matrix(0.05,0,0,0.05,52.95,0)" xlink:href="#aI"/><use transform="matrix(0.05,0,0,0.05,62.95,0)" xlink:href="#av"/><use transform="matrix(0.05,0,0,0.05,72.95,0)" xlink:href="#ap"/><use transform="matrix(0.05,0,0,0.05,76.9,0)" xlink:href="#aq"/></g><path d="M143 4C61 4 22-44 18-125c-5-107 100-154 193-111 17 8 29 25 37 43l-32 9c-13-25-37-40-76-40-61 0-88 39-88 99 0 61 29 100 91 101 35 0 62-11 79-27v-45h-74v-28h105v86C228-13 192 4 143 4" id="aJ"/><g id="n"><use transform="matrix(0.05,0,0,0.05,0,0)" xlink:href="#aJ"/><use transform="matrix(0.05,0,0,0.05,14,0)" xlink:href="#as"/><use transform="matrix(0.05,0,0,0.05,24,0)" xlink:href="#aq"/><use transform="matrix(0.05,0,0,0.05,34,0)" xlink:href="#as"/><use transform="matrix(0.05,0,0,0.05,44,0)" xlink:href="#at"/><use transform="matrix(0.05,0,0,0.05,49.95,0)" xlink:href="#av"/><use transform="matrix(0.05,0,0,0.05,59.95,0)" xlink:href="#ar"/><use transform="matrix(0.05,0,0,0.05,64.95,0)" xlink:href="#as"/></g><path d="M115-194c55 1 70 41 70 98S169 2 115 4C84 4 66-9 55-30l1 105H24l-1-265h31l2 30c10-21 28-34 59-34zm-8 174c40 0 45-34 45-75s-6-73-45-74c-42 0-51 32-51 76 0 43 10 73 51 73" id="aK"/><g id="o"><use transform="matrix(0.05,0,0,0.05,0,0)" xlink:href="#aK"/><use transform="matrix(0.05,0,0,0.05,10,0)" xlink:href="#av"/><use transform="matrix(0.05,0,0,0.05,20,0)" xlink:href="#aw"/><use transform="matrix(0.05,0,0,0.05,29,0)" xlink:href="#aG"/><use transform="matrix(0.05,0,0,0.05,38,0)" xlink:href="#as"/><use transform="matrix(0.05,0,0,0.05,48,0)" xlink:href="#ar"/></g><path d="M84 4C-5 8 30-112 23-190h32v120c0 31 7 50 39 49 72-2 45-101 50-169h31l1 190h-30c-1-10 1-25-2-33-11 22-28 36-60 37" id="aL"/><g id="p"><use transform="matrix(0.05,0,0,0.05,0,0)" xlink:href="#aL"/><use transform="matrix(0.05,0,0,0.05,10,0)" xlink:href="#aK"/><use transform="matrix(0.05,0,0,0.05,20,0)" xlink:href="#ay"/><use transform="matrix(0.05,0,0,0.05,30,0)" xlink:href="#av"/><use transform="matrix(0.05,0,0,0.05,40,0)" xlink:href="#ar"/><use transform="matrix(0.05,0,0,0.05,45,0)" xlink:href="#as"/></g><g id="q"><use transform="matrix(0.05,0,0,0.05,0,0)" xlink:href="#ar"/><use transform="matrix(0.05,0,0,0.05,5,0)" xlink:href="#at"/><use transform="matrix(0.05,0,0,0.05,10.95,0)" xlink:href="#av"/><use transform="matrix(0.05,0,0,0.05,20.95,0)" xlink:href="#aq"/><use transform="matrix(0.05,0,0,0.05,30.950000000000003,0)" xlink:href="#aA"/><use transform="matrix(0.05,0,0,0.05,39.95,0)" xlink:href="#av"/><use transform="matrix(0.05,0,0,0.05,49.95,0)" xlink:href="#aw"/><use transform="matrix(0.05,0,0,0.05,58.95,0)" xlink:href="#ar"/><use transform="matrix(0.05,0,0,0.05,63.95,0)" xlink:href="#ap"/><use transform="matrix(0.05,0,0,0.05,67.9,0)" xlink:href="#aF"/><use transform="matrix(0.05,0,0,0.05,77.9,0)" xlink:href="#aq"/></g><g id="r"><use transform="matrix(0.05,0,0,0.05,0,0)" xlink:href="#ax"/><use transform="matrix(0.05,0,0,0.05,12,0)" xlink:href="#as"/><use transform="matrix(0.05,0,0,0.05,22,0)" xlink:href="#aq"/><use transform="matrix(0.05,0,0,0.05,32,0)" xlink:href="#ay"/></g><g id="s"><use transform="matrix(0.05,0,0,0.05,0,0)" xlink:href="#az"/><use transform="matrix(0.05,0,0,0.05,14.950000000000001,0)" xlink:href="#as"/><use transform="matrix(0.05,0,0,0.05,24.950000000000003,0)" xlink:href="#aA"/><use transform="matrix(0.05,0,0,0.05,33.95,0)" xlink:href="#aA"/><use transform="matrix(0.05,0,0,0.05,42.95,0)" xlink:href="#av"/><use transform="matrix(0.05,0,0,0.05,52.95,0)" xlink:href="#aB"/><use transform="matrix(0.05,0,0,0.05,62.95,0)" xlink:href="#as"/></g><g id="t"><use transform="matrix(0.04548408057179987,0,0,0.04548408057179987,0,0)" xlink:href="#ao"/><use transform="matrix(0.04548408057179987,0,0,0.04548408057179987,9.096816114359974,0)" xlink:href="#V"/><use transform="matrix(0.04548408057179987,0,0,0.04548408057179987,18.19363222871995,0)" xlink:href="#W"/><use transform="matrix(0.04548408057179987,0,0,0.04548408057179987,26.380766731643924,0)" xlink:href="#Y"/><use transform="matrix(0.04548408057179987,0,0,0.04548408057179987,35.4775828460039,0)" xlink:href="#ac"/></g><path d="M108 0H70L1-190h34L89-25l56-165h34" id="aM"/><g id="u"><use transform="matrix(0.05,0,0,0.05,0,0)" xlink:href="#ag"/><use transform="matrix(0.05,0,0,0.05,12.950000000000001,0)" xlink:href="#as"/><use transform="matrix(0.05,0,0,0.05,22.950000000000003,0)" xlink:href="#aw"/><use transform="matrix(0.05,0,0,0.05,31.950000000000003,0)" xlink:href="#as"/><use transform="matrix(0.05,0,0,0.05,41.95,0)" xlink:href="#ap"/><use transform="matrix(0.05,0,0,0.05,45.900000000000006,0)" xlink:href="#aM"/><use transform="matrix(0.05,0,0,0.05,54.900000000000006,0)" xlink:href="#as"/></g><g id="v"><use transform="matrix(0.05,0,0,0.05,0,0)" xlink:href="#ax"/><use transform="matrix(0.05,0,0,0.05,12,0)" xlink:href="#ap"/><use transform="matrix(0.05,0,0,0.05,15.949999999999998,0)" xlink:href="#aB"/><use transform="matrix(0.05,0,0,0.05,25.950000000000003,0)" xlink:href="#aq"/><use transform="matrix(0.05,0,0,0.05,35.95,0)" xlink:href="#av"/><use transform="matrix(0.05,0,0,0.05,45.95,0)" xlink:href="#ar"/><use transform="matrix(0.05,0,0,0.05,50.95,0)" xlink:href="#aL"/><use transform="matrix(0.05,0,0,0.05,60.95,0)" xlink:href="#at"/><use transform="matrix(0.05,0,0,0.05,66.9,0)" xlink:href="#as"/></g><g id="w"><use transform="matrix(0.05,0,0,0.05,0,0)" xlink:href="#aM"/><use transform="matrix(0.05,0,0,0.05,9,0)" xlink:href="#av"/><use transform="matrix(0.05,0,0,0.05,19,0)" xlink:href="#aE"/><use transform="matrix(0.05,0,0,0.05,22.95,0)" xlink:href="#ap"/><use transform="matrix(0.05,0,0,0.05,26.899999999999995,0)" xlink:href="#ay"/></g><path d="M234-2c-28 10-62 0-77-18C117 19 8 12 13-65c3-43 29-61 60-76-25-40-17-114 47-108 35 3 59 15 59 50 0 44-40 53-71 69 14 26 32 50 51 72 14-21 24-43 30-72l26 8c-9 33-21 57-38 82 13 13 33 22 57 15v23zM97-151c25-10 52-18 56-48-1-18-13-29-33-29-42 0-39 50-23 77zM42-66c-3 51 71 58 98 28-20-24-41-51-56-80-23 10-40 24-42 52" id="aN"/><use transform="matrix(0.05,0,0,0.05,0,0)" xlink:href="#aN" id="x"/><path d="M205 0l-28-72H64L36 0H1l101-248h38L239 0h-34zm-38-99l-47-123c-12 45-31 82-46 123h93" id="aO"/><g id="y"><use transform="matrix(0.05,0,0,0.05,0,0)" xlink:href="#aO"/><use transform="matrix(0.05,0,0,0.05,12,0)" xlink:href="#az"/><use transform="matrix(0.05,0,0,0.05,26.950000000000003,0)" xlink:href="#aF"/><use transform="matrix(0.05,0,0,0.05,36.95,0)" xlink:href="#aL"/><use transform="matrix(0.05,0,0,0.05,46.95,0)" xlink:href="#aq"/><use transform="matrix(0.05,0,0,0.05,56.95,0)" xlink:href="#ar"/></g><path d="M103-251c84 0 111 97 45 133-19 10-37 24-39 52H78c0-63 77-55 77-114 0-30-21-42-52-43-32 0-53 17-56 46l-32-2c7-45 34-72 88-72zM77 0v-35h34V0H77" id="aP"/><g id="z"><use transform="matrix(0.05,0,0,0.05,0,0)" xlink:href="#aw"/><use transform="matrix(0.05,0,0,0.05,9,0)" xlink:href="#aF"/><use transform="matrix(0.05,0,0,0.05,19,0)" xlink:href="#at"/><use transform="matrix(0.05,0,0,0.05,24.95,0)" xlink:href="#at"/><use transform="matrix(0.05,0,0,0.05,30.899999999999995,0)" xlink:href="#as"/><use transform="matrix(0.05,0,0,0.05,40.9,0)" xlink:href="#aw"/><use transform="matrix(0.05,0,0,0.05,49.9,0)" xlink:href="#ar"/><use transform="matrix(0.05,0,0,0.05,54.900000000000006,0)" xlink:href="#aP"/></g><g id="A"><use transform="matrix(0.05,0,0,0.05,0,0)" xlink:href="#af"/><use transform="matrix(0.05,0,0,0.05,12,0)" xlink:href="#av"/><use transform="matrix(0.05,0,0,0.05,22,0)" xlink:href="#aw"/><use transform="matrix(0.05,0,0,0.05,31,0)" xlink:href="#aG"/><use transform="matrix(0.05,0,0,0.05,40,0)" xlink:href="#as"/><use transform="matrix(0.05,0,0,0.05,50,0)" xlink:href="#ar"/></g><g id="B"><use transform="matrix(0.05,0,0,0.05,0,0)" xlink:href="#au"/><use transform="matrix(0.05,0,0,0.05,5,0)" xlink:href="#aF"/><use transform="matrix(0.05,0,0,0.05,15,0)" xlink:href="#at"/><use transform="matrix(0.05,0,0,0.05,20.95,0)" xlink:href="#az"/><use transform="matrix(0.05,0,0,0.05,35.9,0)" xlink:href="#av"/><use transform="matrix(0.05,0,0,0.05,45.9,0)" xlink:href="#ar"/></g><path d="M194 0L95-120 63-95V0H30v-248h33v124l119-124h40L117-140 236 0h-42" id="aQ"/><path d="M179-190L93 31C79 59 56 82 12 73V49c39 6 53-20 64-50L1-190h34L92-34l54-156h33" id="aR"/><g id="C"><use transform="matrix(0.05,0,0,0.05,0,0)" xlink:href="#aQ"/><use transform="matrix(0.05,0,0,0.05,12,0)" xlink:href="#as"/><use transform="matrix(0.05,0,0,0.05,22,0)" xlink:href="#aR"/></g><g id="D"><use transform="matrix(0.05,0,0,0.05,0,0)" xlink:href="#ay"/><use transform="matrix(0.05,0,0,0.05,10,0)" xlink:href="#as"/><use transform="matrix(0.05,0,0,0.05,20,0)" xlink:href="#at"/><use transform="matrix(0.05,0,0,0.05,25.950000000000003,0)" xlink:href="#ap"/><use transform="matrix(0.05,0,0,0.05,29.899999999999995,0)" xlink:href="#aM"/><use transform="matrix(0.05,0,0,0.05,38.9,0)" xlink:href="#av"/><use transform="matrix(0.05,0,0,0.05,48.9,0)" xlink:href="#ar"/><use transform="matrix(0.05,0,0,0.05,53.900000000000006,0)" xlink:href="#ap"/><use transform="matrix(0.05,0,0,0.05,57.85,0)" xlink:href="#aF"/><use transform="matrix(0.05,0,0,0.05,67.85,0)" xlink:href="#aq"/></g><path d="M30 0v-248h187v28H63v79h144v27H63v87h162V0H30" id="aS"/><g id="E"><use transform="matrix(0.05,0,0,0.05,0,0)" xlink:href="#aS"/><use transform="matrix(0.05,0,0,0.05,12,0)" xlink:href="#aq"/><use transform="matrix(0.05,0,0,0.05,22,0)" xlink:href="#aF"/><use transform="matrix(0.05,0,0,0.05,32,0)" xlink:href="#aL"/><use transform="matrix(0.05,0,0,0.05,42,0)" xlink:href="#aB"/><use transform="matrix(0.05,0,0,0.05,52,0)" xlink:href="#aI"/></g><g id="F"><use transform="matrix(0.05,0,0,0.05,0,0)" xlink:href="#au"/><use transform="matrix(0.05,0,0,0.05,5,0)" xlink:href="#aL"/><use transform="matrix(0.05,0,0,0.05,15,0)" xlink:href="#aq"/><use transform="matrix(0.05,0,0,0.05,25,0)" xlink:href="#ay"/><use transform="matrix(0.05,0,0,0.05,35,0)" xlink:href="#aA"/></g><g id="G"><use transform="matrix(0.05,0,0,0.05,0,0)" xlink:href="#ap"/><use transform="matrix(0.05,0,0,0.05,3.95,0)" xlink:href="#aq"/></g><g id="H"><use transform="matrix(0.05,0,0,0.05,0,0)" xlink:href="#aK"/><use transform="matrix(0.05,0,0,0.05,10,0)" xlink:href="#av"/><use transform="matrix(0.05,0,0,0.05,20,0)" xlink:href="#aR"/><use transform="matrix(0.05,0,0,0.05,29,0)" xlink:href="#az"/><use transform="matrix(0.05,0,0,0.05,43.95,0)" xlink:href="#as"/><use transform="matrix(0.05,0,0,0.05,53.95,0)" xlink:href="#aq"/><use transform="matrix(0.05,0,0,0.05,63.95,0)" xlink:href="#ar"/></g><g id="I"><use transform="matrix(0.05,0,0,0.05,0,0)" xlink:href="#aw"/><use transform="matrix(0.05,0,0,0.05,9,0)" xlink:href="#aI"/><use transform="matrix(0.05,0,0,0.05,19,0)" xlink:href="#av"/><use transform="matrix(0.05,0,0,0.05,29,0)" xlink:href="#aq"/><use transform="matrix(0.05,0,0,0.05,39,0)" xlink:href="#aq"/><use transform="matrix(0.05,0,0,0.05,49,0)" xlink:href="#as"/><use transform="matrix(0.05,0,0,0.05,59,0)" xlink:href="#aE"/><use transform="matrix(0.05,0,0,0.05,62.95,0)" xlink:href="#aP"/></g><path d="M30-248c118-7 216 8 213 122C240-48 200 0 122 0H30v-248zM63-27c89 8 146-16 146-99s-60-101-146-95v194" id="aT"/><path d="M33 0v-248h34V0H33" id="aU"/><g id="J"><use transform="matrix(0.05,0,0,0.05,0,0)" xlink:href="#aT"/><use transform="matrix(0.05,0,0,0.05,12.950000000000001,0)" xlink:href="#aU"/><use transform="matrix(0.05,0,0,0.05,17.950000000000003,0)" xlink:href="#aA"/><use transform="matrix(0.05,0,0,0.05,26.950000000000003,0)" xlink:href="#aK"/><use transform="matrix(0.05,0,0,0.05,36.95,0)" xlink:href="#aE"/><use transform="matrix(0.05,0,0,0.05,40.900000000000006,0)" xlink:href="#av"/><use transform="matrix(0.05,0,0,0.05,50.900000000000006,0)" xlink:href="#aR"/></g><g id="K"><use transform="matrix(0.05,0,0,0.05,0,0)" xlink:href="#af"/><use transform="matrix(0.05,0,0,0.05,12,0)" xlink:href="#at"/><use transform="matrix(0.05,0,0,0.05,17.95,0)" xlink:href="#as"/><use transform="matrix(0.05,0,0,0.05,27.950000000000003,0)" xlink:href="#aK"/><use transform="matrix(0.05,0,0,0.05,37.95,0)" xlink:href="#av"/><use transform="matrix(0.05,0,0,0.05,47.95,0)" xlink:href="#at"/><use transform="matrix(0.05,0,0,0.05,53.900000000000006,0)" xlink:href="#as"/></g><g id="L"><use transform="matrix(0.05,0,0,0.05,0,0)" xlink:href="#au"/><use transform="matrix(0.05,0,0,0.05,5,0)" xlink:href="#aF"/><use transform="matrix(0.05,0,0,0.05,15,0)" xlink:href="#at"/></g><path d="M141 0L90-78 38 0H4l68-98-65-92h35l48 74 47-74h35l-64 92 68 98h-35" id="aV"/><g id="M"><use transform="matrix(0.05,0,0,0.05,0,0)" xlink:href="#aq"/><use transform="matrix(0.05,0,0,0.05,10,0)" xlink:href="#as"/><use transform="matrix(0.05,0,0,0.05,20,0)" xlink:href="#aV"/><use transform="matrix(0.05,0,0,0.05,29,0)" xlink:href="#ar"/></g><g id="N"><use transform="matrix(0.05,0,0,0.05,0,0)" xlink:href="#aI"/><use transform="matrix(0.05,0,0,0.05,10,0)" xlink:href="#aF"/><use transform="matrix(0.05,0,0,0.05,20,0)" xlink:href="#aK"/></g><use transform="matrix(0.05,0,0,0.05,0,0)" xlink:href="#aN" id="O"/><g id="P"><use transform="matrix(0.05,0,0,0.05,0,0)" xlink:href="#aA"/><use transform="matrix(0.05,0,0,0.05,9,0)" xlink:href="#as"/><use transform="matrix(0.05,0,0,0.05,19,0)" xlink:href="#aq"/><use transform="matrix(0.05,0,0,0.05,29,0)" xlink:href="#ay"/></g><g id="Q"><use transform="matrix(0.05,0,0,0.05,0,0)" xlink:href="#ag"/><use transform="matrix(0.05,0,0,0.05,12.950000000000001,0)" xlink:href="#as"/><use transform="matrix(0.05,0,0,0.05,22.950000000000003,0)" xlink:href="#aw"/><use transform="matrix(0.05,0,0,0.05,31.950000000000003,0)" xlink:href="#ap"/><use transform="matrix(0.05,0,0,0.05,35.900000000000006,0)" xlink:href="#aK"/><use transform="matrix(0.05,0,0,0.05,45.900000000000006,0)" xlink:href="#ap"/><use transform="matrix(0.05,0,0,0.05,49.85000000000001,0)" xlink:href="#as"/><use transform="matrix(0.05,0,0,0.05,59.85,0)" xlink:href="#aq"/><use transform="matrix(0.05,0,0,0.05,69.85000000000001,0)" xlink:href="#ar"/><use transform="matrix(0.05,0,0,0.05,74.85000000000001,0)" xlink:href="#aP"/></g><g id="R"><use transform="matrix(0.05,0,0,0.05,0,0)" xlink:href="#aO"/><use transform="matrix(0.05,0,0,0.05,12,0)" xlink:href="#aw"/><use transform="matrix(0.05,0,0,0.05,21,0)" xlink:href="#aG"/><use transform="matrix(0.05,0,0,0.05,30,0)" xlink:href="#aq"/><use transform="matrix(0.05,0,0,0.05,40,0)" xlink:href="#aF"/><use transform="matrix(0.05,0,0,0.05,50,0)" xlink:href="#aD"/><use transform="matrix(0.05,0,0,0.05,62.95,0)" xlink:href="#aE"/><use transform="matrix(0.05,0,0,0.05,66.9,0)" xlink:href="#as"/><use transform="matrix(0.05,0,0,0.05,76.9,0)" xlink:href="#ay"/><use transform="matrix(0.05,0,0,0.05,86.9,0)" xlink:href="#aB"/><use transform="matrix(0.05,0,0,0.05,96.9,0)" xlink:href="#as"/><use transform="matrix(0.05,0,0,0.05,106.9,0)" xlink:href="#az"/><use transform="matrix(0.05,0,0,0.05,121.85000000000001,0)" xlink:href="#as"/><use transform="matrix(0.05,0,0,0.05,131.85000000000002,0)" xlink:href="#aq"/><use transform="matrix(0.05,0,0,0.05,141.85000000000002,0)" xlink:href="#ar"/></g><path d="M16-82v-28h88v28H16" id="aW"/><g id="S"><use transform="matrix(0.05,0,0,0.05,0,0)" xlink:href="#aO"/><use transform="matrix(0.05,0,0,0.05,12,0)" xlink:href="#aw"/><use transform="matrix(0.05,0,0,0.05,21,0)" xlink:href="#aG"/><use transform="matrix(0.05,0,0,0.05,30,0)" xlink:href="#aq"/><use transform="matrix(0.05,0,0,0.05,40,0)" xlink:href="#aF"/><use transform="matrix(0.05,0,0,0.05,50,0)" xlink:href="#aD"/><use transform="matrix(0.05,0,0,0.05,62.95,0)" xlink:href="#aE"/><use transform="matrix(0.05,0,0,0.05,66.9,0)" xlink:href="#as"/><use transform="matrix(0.05,0,0,0.05,76.9,0)" xlink:href="#ay"/><use transform="matrix(0.05,0,0,0.05,86.9,0)" xlink:href="#aB"/><use transform="matrix(0.05,0,0,0.05,96.9,0)" xlink:href="#as"/><use transform="matrix(0.05,0,0,0.05,106.9,0)" xlink:href="#aW"/></g><g id="T"><use transform="matrix(0.05,0,0,0.05,0,0)" xlink:href="#az"/><use transform="matrix(0.05,0,0,0.05,14.950000000000001,0)" xlink:href="#as"/><use transform="matrix(0.05,0,0,0.05,24.950000000000003,0)" xlink:href="#aq"/><use transform="matrix(0.05,0,0,0.05,34.95,0)" xlink:href="#ar"/><use transform="matrix(0.05,0,0,0.05,39.95,0)" xlink:href="#aA"/></g></defs></g></svg>