<svg xmlns="http://www.w3.org/2000/svg" xmlns:xlink="http://www.w3.org/1999/xlink" xmlns:lucid="lucid" width="1985" height="1011"><g transform="translate(133 -101)" lucid:page-tab-id="0_0"><path d="M-60 851.15h-40V338.83h40" stroke="#000" stroke-width="2" fill="#fff"/><path d="M-60 851.15h1080V671.38H-60zM-60 671.38h1080V496.14H-60z" fill="none"/><path d="M-60 671.38h1080" stroke="#000" stroke-width="2" fill="none"/><path d="M-60 338.83h1080v157.3H-60z" fill="none"/><path d="M-60 496.14h1080M-60 851.15V671.38m0 0V496.14m0 0v-157.3m0 0h1080v157.3m0 175.24V496.14m-1080 355h1080V671.4" stroke="#000" stroke-width="2" fill="none"/><use xlink:href="#a" transform="matrix(6.123233995736766e-17,-1,1,6.123233995736766e-17,-59.999999999999915,496.13640307040487) translate(26.761533463287847 23.27485380116959)"/><use xlink:href="#b" transform="matrix(6.123233995736766e-17,-1,1,6.123233995736766e-17,-59.999999999999915,496.13640307040487) translate(95.85185185185185 23.27485380116959)"/><use xlink:href="#c" transform="matrix(6.123233995736766e-17,-1,1,6.123233995736766e-17,-99.99999999999993,851.1512924873321) translate(232.89376218323588 23.27485380116959)"/><use xlink:href="#d" transform="matrix(6.123233995736766e-17,-1,1,6.123233995736766e-17,-59.999999999999915,671.3760115884556) translate(28.506822612085784 23.27485380116959)"/><use xlink:href="#b" transform="matrix(6.123233995736766e-17,-1,1,6.123233995736766e-17,-59.999999999999915,671.3760115884556) translate(112.10656270305392 23.27485380116959)"/><use xlink:href="#e" transform="matrix(6.123233995736766e-17,-1,1,6.123233995736766e-17,-59.99999999999993,851.1512924873321) translate(76.80961663417804 23.27485380116959)"/><g stroke="#000" stroke-width="2"><path d="M-60 1083.37h-40v-186.6h40" fill="#fff"/><path d="M-60 1083.37h1880v-186.6H-60M-60 1083.37v-186.6" fill="none"/></g><use xlink:href="#f" transform="matrix(6.123233995736766e-17,-1,1,6.123233995736766e-17,-59.999999999999844,1083.369230259039) translate(80.78719948018194 23.27485380116959)"/><use xlink:href="#g" transform="matrix(6.123233995736766e-17,-1,1,6.123233995736766e-17,-99.99999999999984,1083.369230259039) translate(36.28102664067577 23.27485380116959)"/><use xlink:href="#h" transform="matrix(6.123233995736766e-17,-1,1,6.123233995736766e-17,-99.99999999999984,1083.369230259039) translate(88.041910331384 23.27485380116959)"/><path d="M450 990.08c0 16.57-13.43 30-30 30s-30-13.43-30-30 13.43-30 30-30 30 13.43 30 30z" stroke="#000" stroke-width="2" fill="#fff"/><path d="M420 972.08l-15 33 15-18 15 18z" stroke="#000" stroke-width="2" fill="#fff"/><use xlink:href="#i" transform="matrix(1,0,0,1,390,1020.0767775151414) translate(4.528914879792076 13.274853801169591)"/><g stroke="#000" stroke-width="2"><path d="M-60 293.2h-40v-160h40" fill="#fff"/><path d="M-60 293.2h1880v-160H-60M-60 293.2v-160" fill="none"/></g><use xlink:href="#j" transform="matrix(6.123233995736766e-17,-1,1,6.123233995736766e-17,-99.99999999999989,293.20000000000005) translate(36.55 23.6)"/><path d="M689.52 401.25c0-6.2-26.86-11.25-60-11.25s-60 5.04-60 11.25V471c0 3.96 26.86 9 60 9s60-5.04 60-11.25z" stroke="#000" stroke-width="2" fill="#fff"/><path d="M689.52 401.25c0 6.2-26.86 11.25-60 11.25s-60-5.04-60-11.25m120 8.55c0 3.96-26.86 9-60 9s-60-5.04-60-11.25m120 8.55c0 3.96-26.86 9-60 9s-60-5.04-60-11.25" stroke="#000" stroke-width="2" fill="#fff"/><use xlink:href="#k" transform="matrix(1,0,0,1,569.5209934948942,430) translate(3.5749999999999957 14.4)"/><use xlink:href="#l" transform="matrix(1,0,0,1,569.5209934948942,430) translate(35.525 36)"/><path d="M340 360h160v120H340z" stroke="#000" stroke-width="2" fill="#fff"/><use xlink:href="#m" transform="matrix(1,0,0,1,345,365) translate(8.025000000000006 47.8)"/><use xlink:href="#n" transform="matrix(1,0,0,1,345,365) translate(87.97500000000001 47.8)"/><use xlink:href="#o" transform="matrix(1,0,0,1,345,365) translate(31.049999999999997 69.4)"/><path d="M519.5 435h48.02" stroke="#000" stroke-width="2" fill="none"/><path d="M504.24 435l14.26-4.64v9.28z" stroke="#000" stroke-width="2"/><path d="M568.52 436h-1.02v-2h1.02z"/><path d="M340 160h160v120H340z" stroke="#000" stroke-width="2" fill="#fff"/><path d="M344 164h152v112H344z" stroke="#000" stroke-width="2" fill="#fff"/><path d="M344 164h152v112H344z" fill="none"/><use xlink:href="#p" transform="matrix(1,0,0,1,340,160) translate(33.404999999999994 63.15)"/><path d="M420 358v-58.5" stroke="#000" stroke-width="2" fill="none"/><path d="M421 359h-2v-1.03h2z"/><path d="M420 284.24l4.64 14.26h-9.28z" stroke="#000" stroke-width="2"/><path d="M540 220l37.5-37.5L615 220l-37.5 37.5z" stroke="#000" stroke-width="2" fill="#fff"/><path d="M562.5 205l30 30m-30 0l30-30" stroke="#000" stroke-width="4" fill="none"/><path d="M502 220h18.08" stroke="#000" stroke-width="2" fill="none"/><path d="M502.03 221H501v-2h1.03z"/><path d="M535.35 220l-14.27 4.64v-9.28z" stroke="#000" stroke-width="2"/><path d="M517.5 140h120v53.2h-120z" stroke="#000" stroke-opacity="0" stroke-width="2" fill="#fff" fill-opacity="0"/><use xlink:href="#q" transform="matrix(1,0,0,1,522.4999999999999,145) translate(7.024999999999999 25.6)"/><use xlink:href="#r" transform="matrix(1,0,0,1,522.4999999999999,145) translate(73.975 25.6)"/><path d="M616 220h61.58M616.03 220H615" stroke="#000" stroke-width="2" fill="none"/><path d="M692.85 220l-14.27 4.64v-9.28z" stroke="#000" stroke-width="2"/><path d="M697.5 220l37.5-37.5 37.5 37.5-37.5 37.5z" stroke="#000" stroke-width="2" fill="#fff"/><path d="M720 205l30 30m-30 0l30-30" stroke="#000" stroke-width="4" fill="none"/><path d="M777.5 133.2h240v60h-240z" stroke="#000" stroke-opacity="0" stroke-width="2" fill="#fff" fill-opacity="0"/><use xlink:href="#s" transform="matrix(1,0,0,1,782.5000000000001,138.2) translate(63.05 17.799999999999997)"/><use xlink:href="#t" transform="matrix(1,0,0,1,782.5000000000001,138.2) translate(21.07499999999999 39.4)"/><use xlink:href="#r" transform="matrix(1,0,0,1,782.5000000000001,138.2) translate(179.925 39.4)"/><path d="M860 220l37.5-37.5L935 220l-37.5 37.5z" stroke="#000" stroke-width="2" fill="#fff"/><path d="M882.5 205l30 30m-30 0l30-30" stroke="#000" stroke-width="4" fill="none"/><path d="M615 136.6h240v60H615z" stroke="#000" stroke-opacity="0" stroke-width="2" fill="#fff" fill-opacity="0"/><use xlink:href="#u" transform="matrix(1,0,0,1,620.0000000000002,141.6) translate(72.025 28.6)"/><use xlink:href="#r" transform="matrix(1,0,0,1,620.0000000000002,141.6) translate(128.97500000000002 28.6)"/><path d="M774.9 220h65.18" stroke="#000" stroke-width="2" fill="none"/><path d="M774.94 221h-2.03l1-1-1-1h2.04z"/><path d="M855.35 220l-14.27 4.64v-9.28z" stroke="#000" stroke-width="2"/><path d="M937.4 220h42.12v135.5" stroke="#000" stroke-width="2" fill="none"/><path d="M937.44 221h-2.03l1-1-1-1h2.04z"/><path d="M979.52 370.76l-4.63-14.26h9.26z" stroke="#000" stroke-width="2"/><path d="M1009.52 405c0 16.57-13.43 30-30 30s-30-13.43-30-30 13.43-30 30-30 30 13.43 30 30z" stroke="#000" stroke-width="2" fill="#fff"/><use xlink:href="#v" transform="matrix(1,0,0,1,949.5209934948942,435) translate(0.07499999999999574 14.4)"/><use xlink:href="#w" transform="matrix(1,0,0,1,949.5209934948942,435) translate(-3.4750000000000014 36)"/><path d="M1080 854.55h-40V342.23h40" stroke="#000" stroke-width="2" fill="#fff"/><path d="M1080 854.55h740V674.78h-740zM1080 674.78h740V499.54h-740z" fill="none"/><path d="M1080 674.78h740" stroke="#000" stroke-width="2" fill="none"/><path d="M1080 342.23h740v157.3h-740z" fill="none"/><path d="M1080 499.54h740M1080 854.55V674.78m0 0V499.54m0 0v-157.3m0 0h740v157.3m0 175.24V499.54m-740 355h740V674.8" stroke="#000" stroke-width="2" fill="none"/><use xlink:href="#a" transform="matrix(6.123233995736766e-17,-1,1,6.123233995736766e-17,1080,499.53640307040496) translate(24.009746588693957 23.27485380116959)"/><use xlink:href="#x" transform="matrix(6.123233995736766e-17,-1,1,6.123233995736766e-17,1080,499.53640307040496) translate(93.10006497725796 23.27485380116959)"/><use xlink:href="#c" transform="matrix(6.123233995736766e-17,-1,1,6.123233995736766e-17,1040,854.5512924873321) translate(232.89376218323588 23.27485380116959)"/><use xlink:href="#d" transform="matrix(6.123233995736766e-17,-1,1,6.123233995736766e-17,1080,674.7760115884557) translate(25.755035737491887 23.27485380116959)"/><use xlink:href="#x" transform="matrix(6.123233995736766e-17,-1,1,6.123233995736766e-17,1080,674.7760115884557) translate(109.35477582846002 23.27485380116959)"/><use xlink:href="#e" transform="matrix(6.123233995736766e-17,-1,1,6.123233995736766e-17,1080,854.5512924873321) translate(76.80961663417804 23.27485380116959)"/><path d="M1200 410c0 16.57-13.43 30-30 30s-30-13.43-30-30 13.43-30 30-30 30 13.43 30 30z" stroke="#000" stroke-width="2" fill="#fff"/><use xlink:href="#v" transform="matrix(1,0,0,1,1140,440) translate(0.07499999999999574 14.4)"/><use xlink:href="#w" transform="matrix(1,0,0,1,1140,440) translate(-3.4750000000000014 36)"/><path d="M953.4 220H1170v140.5M953.42 220h-1.03" stroke="#000" stroke-width="2" fill="none"/><path d="M1170 375.76l-4.64-14.26h9.28z" stroke="#000" stroke-width="2"/><path d="M1780 391.25c0-6.2-26.86-11.25-60-11.25s-60 5.04-60 11.25V461c0 3.96 26.86 9 60 9s60-5.04 60-11.25z" stroke="#000" stroke-width="2" fill="#fff"/><path d="M1780 391.25c0 6.2-26.86 11.25-60 11.25s-60-5.04-60-11.25m120 8.55c0 3.96-26.86 9-60 9s-60-5.04-60-11.25m120 8.55c0 3.96-26.86 9-60 9s-60-5.04-60-11.25" stroke="#000" stroke-width="2" fill="#fff"/><use xlink:href="#k" transform="matrix(1,0,0,1,1660,420) translate(3.5749999999999957 14.4)"/><use xlink:href="#l" transform="matrix(1,0,0,1,1660,420) translate(35.525 36)"/><path d="M1280 412.5l37.5-37.5 37.5 37.5-37.5 37.5z" stroke="#000" stroke-width="2" fill="#fff"/><path d="M1302.5 397.5l30 30m-30 0l30-30" stroke="#000" stroke-width="4" fill="none"/><path d="M1200 435h240v60h-240z" stroke="#000" stroke-opacity="0" stroke-width="2" fill="#fff" fill-opacity="0"/><use xlink:href="#y" transform="matrix(1,0,0,1,1205,440) translate(22.099999999999994 28.6)"/><use xlink:href="#z" transform="matrix(1,0,0,1,1205,440) translate(59.05 28.6)"/><use xlink:href="#A" transform="matrix(1,0,0,1,1205,440) translate(110 28.6)"/><path d="M1202 410h60.58" stroke="#000" stroke-width="2" fill="none"/><path d="M1202.03 411h-1.1l.07-.98-.03-1.02h1.06z"/><path d="M1277.85 410l-14.27 4.64v-9.28z" stroke="#000" stroke-width="2"/><path d="M1440 360h160v120h-160z" stroke="#000" stroke-width="2" fill="#fff"/><use xlink:href="#m" transform="matrix(1,0,0,1,1445,365) translate(8.025000000000006 47.8)"/><use xlink:href="#n" transform="matrix(1,0,0,1,1445,365) translate(87.97500000000001 47.8)"/><use xlink:href="#o" transform="matrix(1,0,0,1,1445,365) translate(31.049999999999997 69.4)"/><path d="M1357.4 412.5h63.1" stroke="#000" stroke-width="2" fill="none"/><path d="M1357.44 413.5h-2.03l1-1-1-1h2.04z"/><path d="M1435.76 412.5l-14.26 4.64v-9.28z" stroke="#000" stroke-width="2"/><path d="M1520 358v-39h-88.08v.5H1175c0-2.76-2.24-5-5-5s-5 2.24-5 5H984.52c0-2.76-2.24-5-5-5s-5 2.24-5 5H425c0-2.76-2.24-5-5-5s-5 2.24-5 5h-95V220h.5" fill="none"/><path d="M1520 358v-9.86m0-9.86V319h-.44m-9.85 0H1490m-9.87 0h-19.72m-9.85 0h-18.63v.5h-.6m-9.85 0h-19.7m-9.87 0h-19.72m-9.86 0h-19.72m-9.86 0h-19.7m-9.87 0h-19.72m-9.86 0h-19.73m-9.86 0h-19.7m-9.86 0h-19.72m-9.86 0H1175l-.96-2.95-2.46-1.8-1.58-.25-2.95.96-1.8 2.46-.25 1.58h-10.03m-10.02 0h-20.06m-10.03 0h-20.06m-10 0h-20.07m-10.02 0h-20.05m-10.02 0h-20.06m-10.02 0h-10.03l-.96-2.95-2.46-1.8-1.58-.25-2.95.96-1.8 2.46-.25 1.58h-10.18m-10.17 0h-20.35m-10.18 0H903.3m-10.2 0h-20.34m-10.18 0h-20.35m-10.18 0H811.7m-10.18 0h-20.35m-10.18 0h-20.36m-10.17 0H720.1m-10.16 0h-20.36m-10.17 0h-20.34m-10.18 0h-20.35m-10.18 0H598m-10.18 0h-20.35m-10.18 0h-20.36m-10.18 0H506.4m-10.17 0h-20.35m-10.17 0h-20.35m-10.17 0H425l-.96-2.95-2.46-1.8-1.58-.25-2.95.96-1.8 2.46-.25 1.58h-10.83m-10.84 0h-21.66m-10.84 0h-21.66m-10.84 0H320v-13.33m0-10.84v-21.66m0-10.84v-21.66m0-10.83V220h.5" stroke="#000" stroke-width="2" fill="none"/><path d="M1521 359h-2v-1.03h2z"/><path d="M335.76 220l-14.26 4.64v-9.28z" stroke="#000" stroke-width="2"/><path d="M772.02 405l37.5-37.5 37.5 37.5-37.5 37.5z" stroke="#000" stroke-width="2" fill="#fff"/><path d="M794.52 390l30 30m-30 0l30-30" stroke="#000" stroke-width="4" fill="none"/><path d="M689.52 440h240v60h-240z" stroke="#000" stroke-opacity="0" stroke-width="2" fill="#fff" fill-opacity="0"/><use xlink:href="#y" transform="matrix(1,0,0,1,694.5209934948941,445) translate(22.099999999999994 28.6)"/><use xlink:href="#z" transform="matrix(1,0,0,1,694.5209934948941,445) translate(59.05 28.6)"/><use xlink:href="#A" transform="matrix(1,0,0,1,694.5209934948941,445) translate(110 28.6)"/><path d="M866.94 405h80.58" fill="none"/><path d="M866.94 405h8.95m8.94 0h17.9m8.97 0h17.9m8.97 0h8.95" stroke="#000" stroke-width="2" fill="none"/><path d="M851.67 405l14.27-4.64v9.28z" stroke="#000" stroke-width="2"/><path d="M948.52 404.98l.04 1.02h-1.07v-2h1.1z"/><path d="M769.6 405h-21v-28.33H519.5" fill="none"/><path d="M769.6 405h-10.3m-10.32 0h-.37v-20.25m-2.22-8.08h-20.63m-10.3 0H694.8m-10.3 0h-20.62m-10.32 0h-20.62m-10.3 0H602m-10.3 0h-20.64m-10.3 0h-20.63m-10.32 0h-10.3" stroke="#000" stroke-width="2" fill="none"/><path d="M770.6 405l1 1h-2.02v-2h2.03z"/><path d="M504.24 376.67l14.26-4.64v9.27z" stroke="#000" stroke-width="2"/><path d="M1658 425h-38.5" stroke="#000" stroke-width="2" fill="none"/><path d="M1659 426h-1.03v-2h1.03z"/><path d="M1604.24 425l14.26-4.64v9.28z" stroke="#000" stroke-width="2"/><path d="M140 360h160v120H140z" stroke="#000" stroke-width="2" fill="#fff"/><use xlink:href="#B" transform="matrix(1,0,0,1,140,360) translate(42.529999999999994 40.65)"/><use xlink:href="#C" transform="matrix(1,0,0,1,140,360) translate(44.60499999999999 62.25)"/><use xlink:href="#D" transform="matrix(1,0,0,1,140,360) translate(36.05499999999999 83.85000000000001)"/><path d="M477.5 700h160v120h-160z" stroke="#000" stroke-width="2" fill="#fff"/><g><use xlink:href="#E" transform="matrix(1,0,0,1,477.4999999999999,700) translate(38.605 63.15)"/><use xlink:href="#F" transform="matrix(1,0,0,1,477.4999999999999,700) translate(81.555 63.15)"/></g><path d="M952 420.97h-21V590H599.34v90.5" stroke="#000" stroke-width="2" fill="none"/><path d="M953.4 421.73l.2.24h-1.62v-2h.5z"/><path d="M599.33 695.76l-4.63-14.26h9.27z" stroke="#000" stroke-width="2"/><path d="M420 958.08V499.5" stroke="#000" stroke-width="2" fill="none"/><path d="M421 959.16l-.98-.08-1.02.03v-1.05h2z"/><path d="M420 484.24l4.64 14.26h-9.28z" stroke="#000" stroke-width="2"/><path d="M67.5 990.08c0 16.57-13.43 30-30 30s-30-13.43-30-30 13.43-30 30-30 30 13.43 30 30z" stroke="#000" stroke-width="6" fill="#fff"/><g><use xlink:href="#G" transform="matrix(1,0,0,1,7.5,1020.0767775151181) translate(2 14.4)"/><use xlink:href="#H" transform="matrix(1,0,0,1,7.5,1020.0767775151181) translate(-0.9499999999999993 36)"/></g><path d="M421 759.33h37M421.03 759.33H420" stroke="#000" stroke-width="2" fill="none"/><path d="M473.26 759.33L459 763.97v-9.27z" stroke="#000" stroke-width="2"/><path d="M526 698V590H425c0-2.76-2.24-5-5-5s-5 2.24-5 5H220v-90.5" stroke="#000" stroke-width="2" fill="none"/><path d="M527 699h-2v-1.03h2z"/><path d="M220 484.24l4.64 14.26h-9.28z" stroke="#000" stroke-width="2"/><path d="M140 160h160v120H140z" stroke="#000" stroke-width="2" fill="#fff"/><path d="M144 164h152v112H144z" stroke="#000" stroke-width="2" fill="#fff"/><path d="M144 164h152v112H144z" fill="none"/><g><use xlink:href="#p" transform="matrix(1,0,0,1,140,160) translate(33.404999999999994 63.15)"/></g><path d="M220 358v-58.5" stroke="#000" stroke-width="2" fill="none"/><path d="M221 359h-2v-1.03h2z"/><path d="M220 284.24l4.64 14.26h-9.28z" stroke="#000" stroke-width="2"/><path d="M0 220l37.5-37.5L75 220l-37.5 37.5z" stroke="#000" stroke-width="2" fill="#fff"/><path d="M22.5 205l30 30m-30 0l30-30" stroke="#000" stroke-width="4" fill="none"/><path d="M138 220H94.92" stroke="#000" stroke-width="2" fill="none"/><path d="M139 221h-1.03v-2H139z"/><path d="M79.65 220l14.27-4.64v9.28z" stroke="#000" stroke-width="2"/><path d="M-82.5 133.2h240v60h-240z" stroke="#000" stroke-opacity="0" stroke-width="2" fill="#fff" fill-opacity="0"/><g><use xlink:href="#I" transform="matrix(1,0,0,1,-77.5,138.2) translate(29.599999999999994 17.799999999999997)"/><use xlink:href="#J" transform="matrix(1,0,0,1,-77.5,138.2) translate(54.49999999999999 17.799999999999997)"/><use xlink:href="#K" transform="matrix(1,0,0,1,-77.5,138.2) translate(128.45 17.799999999999997)"/><use xlink:href="#L" transform="matrix(1,0,0,1,-77.5,138.2) translate(84.025 39.4)"/></g><path d="M37.5 941.57V259.9" stroke="#000" stroke-width="2" fill="none"/><path d="M37.5 956.84l-4.64-14.27h9.28z" stroke="#000" stroke-width="2"/><path d="M38.5 259.94h-2v-2.03l1 1 1-1z"/><defs><path fill="#666" d="M30-248c87 1 191-15 191 75 0 78-77 80-158 76V0H30v-248zm33 125c57 0 124 11 124-50 0-59-68-47-124-48v98" id="M"/><path fill="#666" d="M141-36C126-15 110 5 73 4 37 3 15-17 15-53c-1-64 63-63 125-63 3-35-9-54-41-54-24 1-41 7-42 31l-33-3c5-37 33-52 76-52 45 0 72 20 72 64v82c-1 20 7 32 28 27v20c-31 9-61-2-59-35zM48-53c0 20 12 33 32 33 41-3 63-29 60-74-43 2-92-5-92 41" id="N"/><path fill="#666" d="M179-190L93 31C79 59 56 82 12 73V49c39 6 53-20 64-50L1-190h34L92-34l54-156h33" id="O"/><path fill="#666" d="M210-169c-67 3-38 105-44 169h-31v-121c0-29-5-50-35-48C34-165 62-65 56 0H25l-1-190h30c1 10-1 24 2 32 10-44 99-50 107 0 11-21 27-35 58-36 85-2 47 119 55 194h-31v-121c0-29-5-49-35-48" id="P"/><path fill="#666" d="M100-194c63 0 86 42 84 106H49c0 40 14 67 53 68 26 1 43-12 49-29l28 8c-11 28-37 45-77 45C44 4 14-33 15-96c1-61 26-98 85-98zm52 81c6-60-76-77-97-28-3 7-6 17-6 28h103" id="Q"/><path fill="#666" d="M117-194c89-4 53 116 60 194h-32v-121c0-31-8-49-39-48C34-167 62-67 57 0H25l-1-190h30c1 10-1 24 2 32 11-22 29-35 61-36" id="R"/><path fill="#666" d="M59-47c-2 24 18 29 38 22v24C64 9 27 4 27-40v-127H5v-23h24l9-43h21v43h35v23H59v120" id="S"/><g id="a"><use transform="matrix(0.04548408057179987,0,0,0.04548408057179987,0,0)" xlink:href="#M"/><use transform="matrix(0.04548408057179987,0,0,0.04548408057179987,10.916179337231968,0)" xlink:href="#N"/><use transform="matrix(0.04548408057179987,0,0,0.04548408057179987,20.01299545159194,0)" xlink:href="#O"/><use transform="matrix(0.04548408057179987,0,0,0.04548408057179987,28.20012995451592,0)" xlink:href="#P"/><use transform="matrix(0.04548408057179987,0,0,0.04548408057179987,41.79987004548408,0)" xlink:href="#Q"/><use transform="matrix(0.04548408057179987,0,0,0.04548408057179987,50.89668615984405,0)" xlink:href="#R"/><use transform="matrix(0.04548408057179987,0,0,0.04548408057179987,59.993502274204026,0)" xlink:href="#S"/></g><path fill="#666" d="M24 0v-261h32V0H24" id="T"/><path fill="#666" d="M114-163C36-179 61-72 57 0H25l-1-190h30c1 12-1 29 2 39 6-27 23-49 58-41v29" id="U"/><g id="b"><use transform="matrix(0.04548408057179987,0,0,0.04548408057179987,0,0)" xlink:href="#T"/><use transform="matrix(0.04548408057179987,0,0,0.04548408057179987,3.5932423651721894,0)" xlink:href="#N"/><use transform="matrix(0.04548408057179987,0,0,0.04548408057179987,12.690058479532164,0)" xlink:href="#O"/><use transform="matrix(0.04548408057179987,0,0,0.04548408057179987,20.87719298245614,0)" xlink:href="#Q"/><use transform="matrix(0.04548408057179987,0,0,0.04548408057179987,29.97400909681611,0)" xlink:href="#U"/></g><path d="M197 0v-115H63V0H30v-248h33v105h134v-105h34V0h-34" id="V"/><path d="M140-251c81 0 123 46 123 126C263-46 219 4 140 4 59 4 17-45 17-125s42-126 123-126zm0 227c63 0 89-41 89-101s-29-99-89-99c-61 0-89 39-89 99S79-25 140-24" id="W"/><path d="M30-248c87 1 191-15 191 75 0 78-77 80-158 76V0H30v-248zm33 125c57 0 124 11 124-50 0-59-68-47-124-48v98" id="X"/><path d="M233-177c-1 41-23 64-60 70L243 0h-38l-65-103H63V0H30v-248c88 3 205-21 203 71zM63-129c60-2 137 13 137-47 0-61-80-42-137-45v92" id="Y"/><g id="c"><use transform="matrix(0.04548408057179987,0,0,0.04548408057179987,0,0)" xlink:href="#V"/><use transform="matrix(0.04548408057179987,0,0,0.04548408057179987,11.780376868096166,0)" xlink:href="#W"/><use transform="matrix(0.04548408057179987,0,0,0.04548408057179987,24.515919428200128,0)" xlink:href="#X"/><use transform="matrix(0.04548408057179987,0,0,0.04548408057179987,35.432098765432094,0)" xlink:href="#Y"/></g><path fill="#666" d="M240 0l2-218c-23 76-54 145-80 218h-23L58-218 59 0H30v-248h44l77 211c21-75 51-140 76-211h43V0h-30" id="Z"/><path fill="#666" d="M135-143c-3-34-86-38-87 0 15 53 115 12 119 90S17 21 10-45l28-5c4 36 97 45 98 0-10-56-113-15-118-90-4-57 82-63 122-42 12 7 21 19 24 35" id="aa"/><path fill="#666" d="M177-190C167-65 218 103 67 71c-23-6-38-20-44-43l32-5c15 47 100 32 89-28v-30C133-14 115 1 83 1 29 1 15-40 15-95c0-56 16-97 71-98 29-1 48 16 59 35 1-10 0-23 2-32h30zM94-22c36 0 50-32 50-73 0-42-14-75-50-75-39 0-46 34-46 75s6 73 46 73" id="ab"/><path fill="#666" d="M24-231v-30h32v30H24zM24 0v-190h32V0H24" id="ac"/><g id="d"><use transform="matrix(0.04548408057179987,0,0,0.04548408057179987,0,0)" xlink:href="#Z"/><use transform="matrix(0.04548408057179987,0,0,0.04548408057179987,13.59974009096816,0)" xlink:href="#Q"/><use transform="matrix(0.04548408057179987,0,0,0.04548408057179987,22.696556205328136,0)" xlink:href="#aa"/><use transform="matrix(0.04548408057179987,0,0,0.04548408057179987,30.88369070825211,0)" xlink:href="#aa"/><use transform="matrix(0.04548408057179987,0,0,0.04548408057179987,39.070825211176086,0)" xlink:href="#N"/><use transform="matrix(0.04548408057179987,0,0,0.04548408057179987,48.16764132553606,0)" xlink:href="#ab"/><use transform="matrix(0.04548408057179987,0,0,0.04548408057179987,57.264457439896034,0)" xlink:href="#ac"/><use transform="matrix(0.04548408057179987,0,0,0.04548408057179987,60.85769980506822,0)" xlink:href="#R"/><use transform="matrix(0.04548408057179987,0,0,0.04548408057179987,69.95451591942819,0)" xlink:href="#ab"/></g><path fill="#666" d="M205 0l-28-72H64L36 0H1l101-248h38L239 0h-34zm-38-99l-47-123c-12 45-31 82-46 123h93" id="ad"/><path fill="#666" d="M33 0v-248h34V0H33" id="ae"/><g id="e"><use transform="matrix(0.04548408057179987,0,0,0.04548408057179987,0,0)" xlink:href="#ad"/><use transform="matrix(0.04548408057179987,0,0,0.04548408057179987,10.916179337231968,0)" xlink:href="#M"/><use transform="matrix(0.04548408057179987,0,0,0.04548408057179987,21.832358674463936,0)" xlink:href="#ae"/></g><path fill="#666" d="M212-179c-10-28-35-45-73-45-59 0-87 40-87 99 0 60 29 101 89 101 43 0 62-24 78-52l27 14C228-24 195 4 139 4 59 4 22-46 18-125c-6-104 99-153 187-111 19 9 31 26 39 46" id="af"/><path fill="#666" d="M30 0v-248h33v221h125V0H30" id="ag"/><g id="f"><use transform="matrix(0.04548408057179987,0,0,0.04548408057179987,0,0)" xlink:href="#af"/><use transform="matrix(0.04548408057179987,0,0,0.04548408057179987,11.780376868096166,0)" xlink:href="#ag"/><use transform="matrix(0.04548408057179987,0,0,0.04548408057179987,20.87719298245614,0)" xlink:href="#ae"/></g><g id="g"><use transform="matrix(0.04548408057179987,0,0,0.04548408057179987,0,0)" xlink:href="#V"/><use transform="matrix(0.04548408057179987,0,0,0.04548408057179987,11.780376868096166,0)" xlink:href="#W"/><use transform="matrix(0.04548408057179987,0,0,0.04548408057179987,24.515919428200128,0)" xlink:href="#X"/><use transform="matrix(0.04548408057179987,0,0,0.04548408057179987,35.432098765432094,0)" xlink:href="#Y"/></g><path d="M24-231v-30h32v30H24zM24 0v-190h32V0H24" id="ah"/><path d="M117-194c89-4 53 116 60 194h-32v-121c0-31-8-49-39-48C34-167 62-67 57 0H25l-1-190h30c1 10-1 24 2 32 11-22 29-35 61-36" id="ai"/><path d="M59-47c-2 24 18 29 38 22v24C64 9 27 4 27-40v-127H5v-23h24l9-43h21v43h35v23H59v120" id="aj"/><path d="M100-194c63 0 86 42 84 106H49c0 40 14 67 53 68 26 1 43-12 49-29l28 8c-11 28-37 45-77 45C44 4 14-33 15-96c1-61 26-98 85-98zm52 81c6-60-76-77-97-28-3 7-6 17-6 28h103" id="ak"/><path d="M114-163C36-179 61-72 57 0H25l-1-190h30c1 12-1 29 2 39 6-27 23-49 58-41v29" id="al"/><path d="M101-234c-31-9-42 10-38 44h38v23H63V0H32v-167H5v-23h27c-7-52 17-82 69-68v24" id="am"/><path d="M141-36C126-15 110 5 73 4 37 3 15-17 15-53c-1-64 63-63 125-63 3-35-9-54-41-54-24 1-41 7-42 31l-33-3c5-37 33-52 76-52 45 0 72 20 72 64v82c-1 20 7 32 28 27v20c-31 9-61-2-59-35zM48-53c0 20 12 33 32 33 41-3 63-29 60-74-43 2-92-5-92 41" id="an"/><path d="M96-169c-40 0-48 33-48 73s9 75 48 75c24 0 41-14 43-38l32 2c-6 37-31 61-74 61-59 0-76-41-82-99-10-93 101-131 147-64 4 7 5 14 7 22l-32 3c-4-21-16-35-41-35" id="ao"/><g id="h"><use transform="matrix(0.04548408057179987,0,0,0.04548408057179987,0,0)" xlink:href="#ah"/><use transform="matrix(0.04548408057179987,0,0,0.04548408057179987,3.5932423651721894,0)" xlink:href="#ai"/><use transform="matrix(0.04548408057179987,0,0,0.04548408057179987,12.690058479532164,0)" xlink:href="#aj"/><use transform="matrix(0.04548408057179987,0,0,0.04548408057179987,17.238466536712153,0)" xlink:href="#ak"/><use transform="matrix(0.04548408057179987,0,0,0.04548408057179987,26.335282651072127,0)" xlink:href="#al"/><use transform="matrix(0.04548408057179987,0,0,0.04548408057179987,31.747888239116314,0)" xlink:href="#am"/><use transform="matrix(0.04548408057179987,0,0,0.04548408057179987,36.2962962962963,0)" xlink:href="#an"/><use transform="matrix(0.04548408057179987,0,0,0.04548408057179987,45.39311241065627,0)" xlink:href="#ao"/><use transform="matrix(0.04548408057179987,0,0,0.04548408057179987,53.58024691358025,0)" xlink:href="#ak"/></g><path d="M179-190L93 31C79 59 56 82 12 73V49c39 6 53-20 64-50L1-190h34L92-34l54-156h33" id="ap"/><path d="M100-194c62-1 85 37 85 99 1 63-27 99-86 99S16-35 15-95c0-66 28-99 85-99zM99-20c44 1 53-31 53-75 0-43-8-75-51-75s-53 32-53 75 10 74 51 75" id="aq"/><path d="M84 4C-5 8 30-112 23-190h32v120c0 31 7 50 39 49 72-2 45-101 50-169h31l1 190h-30c-1-10 1-25-2-33-11 22-28 36-60 37" id="ar"/><g id="i"><use transform="matrix(0.04548408057179987,0,0,0.04548408057179987,0,0)" xlink:href="#X"/><use transform="matrix(0.04548408057179987,0,0,0.04548408057179987,10.916179337231968,0)" xlink:href="#an"/><use transform="matrix(0.04548408057179987,0,0,0.04548408057179987,20.01299545159194,0)" xlink:href="#ap"/><use transform="matrix(0.04548408057179987,0,0,0.04548408057179987,28.20012995451592,0)" xlink:href="#aq"/><use transform="matrix(0.04548408057179987,0,0,0.04548408057179987,37.29694606887589,0)" xlink:href="#ar"/><use transform="matrix(0.04548408057179987,0,0,0.04548408057179987,46.393762183235864,0)" xlink:href="#aj"/></g><path d="M160-131c35 5 61 23 61 61C221 17 115-2 30 0v-248c76 3 177-17 177 60 0 33-19 50-47 57zm-97-11c50-1 110 9 110-42 0-47-63-36-110-37v79zm0 115c55-2 124 14 124-45 0-56-70-42-124-44v89" id="as"/><path d="M24 0v-261h32V0H24" id="at"/><path d="M143 0L79-87 56-68V0H24v-261h32v163l83-92h37l-77 82L181 0h-38" id="au"/><path d="M106-169C34-169 62-67 57 0H25v-261h32l-1 103c12-21 28-36 61-36 89 0 53 116 60 194h-32v-121c2-32-8-49-39-48" id="av"/><g id="j"><use transform="matrix(0.05,0,0,0.05,0,0)" xlink:href="#as"/><use transform="matrix(0.05,0,0,0.05,12,0)" xlink:href="#at"/><use transform="matrix(0.05,0,0,0.05,15.949999999999998,0)" xlink:href="#aq"/><use transform="matrix(0.05,0,0,0.05,25.950000000000003,0)" xlink:href="#ao"/><use transform="matrix(0.05,0,0,0.05,34.95,0)" xlink:href="#au"/><use transform="matrix(0.05,0,0,0.05,43.95,0)" xlink:href="#ao"/><use transform="matrix(0.05,0,0,0.05,52.95,0)" xlink:href="#av"/><use transform="matrix(0.05,0,0,0.05,62.95,0)" xlink:href="#an"/><use transform="matrix(0.05,0,0,0.05,72.95,0)" xlink:href="#ah"/><use transform="matrix(0.05,0,0,0.05,76.9,0)" xlink:href="#ai"/></g><path d="M205 0l-28-72H64L36 0H1l101-248h38L239 0h-34zm-38-99l-47-123c-12 45-31 82-46 123h93" id="aw"/><path d="M206 0h-36l-40-164L89 0H53L-1-190h32L70-26l43-164h34l41 164 42-164h31" id="ax"/><path d="M85-194c31 0 48 13 60 33l-1-100h32l1 261h-30c-2-10 0-23-3-31C134-8 116 4 85 4 32 4 16-35 15-94c0-66 23-100 70-100zm9 24c-40 0-46 34-46 75 0 40 6 74 45 74 42 0 51-32 51-76 0-42-9-74-50-73" id="ay"/><path d="M177-190C167-65 218 103 67 71c-23-6-38-20-44-43l32-5c15 47 100 32 89-28v-30C133-14 115 1 83 1 29 1 15-40 15-95c0-56 16-97 71-98 29-1 48 16 59 35 1-10 0-23 2-32h30zM94-22c36 0 50-32 50-73 0-42-14-75-50-75-39 0-46 34-46 75s6 73 46 73" id="az"/><path d="M16-82v-28h88v28H16" id="aA"/><g id="k"><use transform="matrix(0.05,0,0,0.05,0,0)" xlink:href="#aw"/><use transform="matrix(0.05,0,0,0.05,12,0)" xlink:href="#ao"/><use transform="matrix(0.05,0,0,0.05,21,0)" xlink:href="#au"/><use transform="matrix(0.05,0,0,0.05,30,0)" xlink:href="#ai"/><use transform="matrix(0.05,0,0,0.05,40,0)" xlink:href="#aq"/><use transform="matrix(0.05,0,0,0.05,50,0)" xlink:href="#ax"/><use transform="matrix(0.05,0,0,0.05,62.95,0)" xlink:href="#at"/><use transform="matrix(0.05,0,0,0.05,66.9,0)" xlink:href="#ak"/><use transform="matrix(0.05,0,0,0.05,76.9,0)" xlink:href="#ay"/><use transform="matrix(0.05,0,0,0.05,86.9,0)" xlink:href="#az"/><use transform="matrix(0.05,0,0,0.05,96.9,0)" xlink:href="#ak"/><use transform="matrix(0.05,0,0,0.05,106.9,0)" xlink:href="#aA"/></g><path d="M210-169c-67 3-38 105-44 169h-31v-121c0-29-5-50-35-48C34-165 62-65 56 0H25l-1-190h30c1 10-1 24 2 32 10-44 99-50 107 0 11-21 27-35 58-36 85-2 47 119 55 194h-31v-121c0-29-5-49-35-48" id="aB"/><path d="M135-143c-3-34-86-38-87 0 15 53 115 12 119 90S17 21 10-45l28-5c4 36 97 45 98 0-10-56-113-15-118-90-4-57 82-63 122-42 12 7 21 19 24 35" id="aC"/><g id="l"><use transform="matrix(0.05,0,0,0.05,0,0)" xlink:href="#aB"/><use transform="matrix(0.05,0,0,0.05,14.950000000000001,0)" xlink:href="#ak"/><use transform="matrix(0.05,0,0,0.05,24.950000000000003,0)" xlink:href="#ai"/><use transform="matrix(0.05,0,0,0.05,34.95,0)" xlink:href="#aj"/><use transform="matrix(0.05,0,0,0.05,39.95,0)" xlink:href="#aC"/></g><path d="M143 4C61 4 22-44 18-125c-5-107 100-154 193-111 17 8 29 25 37 43l-32 9c-13-25-37-40-76-40-61 0-88 39-88 99 0 61 29 100 91 101 35 0 62-11 79-27v-45h-74v-28h105v86C228-13 192 4 143 4" id="aD"/><g id="m"><use transform="matrix(0.05,0,0,0.05,0,0)" xlink:href="#aD"/><use transform="matrix(0.05,0,0,0.05,14,0)" xlink:href="#ak"/><use transform="matrix(0.05,0,0,0.05,24,0)" xlink:href="#ai"/><use transform="matrix(0.05,0,0,0.05,34,0)" xlink:href="#ak"/><use transform="matrix(0.05,0,0,0.05,44,0)" xlink:href="#al"/><use transform="matrix(0.05,0,0,0.05,49.95,0)" xlink:href="#an"/><use transform="matrix(0.05,0,0,0.05,59.95,0)" xlink:href="#aj"/><use transform="matrix(0.05,0,0,0.05,64.95,0)" xlink:href="#ak"/></g><path d="M115-194c55 1 70 41 70 98S169 2 115 4C84 4 66-9 55-30l1 105H24l-1-265h31l2 30c10-21 28-34 59-34zm-8 174c40 0 45-34 45-75s-6-73-45-74c-42 0-51 32-51 76 0 43 10 73 51 73" id="aE"/><g id="n"><use transform="matrix(0.05,0,0,0.05,0,0)" xlink:href="#aE"/><use transform="matrix(0.05,0,0,0.05,10,0)" xlink:href="#an"/><use transform="matrix(0.05,0,0,0.05,20,0)" xlink:href="#ap"/><use transform="matrix(0.05,0,0,0.05,29,0)" xlink:href="#aq"/><use transform="matrix(0.05,0,0,0.05,39,0)" xlink:href="#ar"/><use transform="matrix(0.05,0,0,0.05,49,0)" xlink:href="#aj"/></g><g id="o"><use transform="matrix(0.05,0,0,0.05,0,0)" xlink:href="#aj"/><use transform="matrix(0.05,0,0,0.05,5,0)" xlink:href="#al"/><use transform="matrix(0.05,0,0,0.05,10.95,0)" xlink:href="#an"/><use transform="matrix(0.05,0,0,0.05,20.95,0)" xlink:href="#ai"/><use transform="matrix(0.05,0,0,0.05,30.950000000000003,0)" xlink:href="#aC"/><use transform="matrix(0.05,0,0,0.05,39.95,0)" xlink:href="#an"/><use transform="matrix(0.05,0,0,0.05,49.95,0)" xlink:href="#ao"/><use transform="matrix(0.05,0,0,0.05,58.95,0)" xlink:href="#aj"/><use transform="matrix(0.05,0,0,0.05,63.95,0)" xlink:href="#ah"/><use transform="matrix(0.05,0,0,0.05,67.9,0)" xlink:href="#aq"/><use transform="matrix(0.05,0,0,0.05,77.9,0)" xlink:href="#ai"/></g><path d="M127-220V0H93v-220H8v-28h204v28h-85" id="aF"/><g id="p"><use transform="matrix(0.05,0,0,0.05,0,0)" xlink:href="#aF"/><use transform="matrix(0.05,0,0,0.05,10.3,0)" xlink:href="#al"/><use transform="matrix(0.05,0,0,0.05,16.25,0)" xlink:href="#an"/><use transform="matrix(0.05,0,0,0.05,26.25,0)" xlink:href="#ai"/><use transform="matrix(0.05,0,0,0.05,36.25,0)" xlink:href="#aC"/><use transform="matrix(0.05,0,0,0.05,45.25,0)" xlink:href="#an"/><use transform="matrix(0.05,0,0,0.05,55.25,0)" xlink:href="#ao"/><use transform="matrix(0.05,0,0,0.05,64.25,0)" xlink:href="#aj"/><use transform="matrix(0.05,0,0,0.05,69.25,0)" xlink:href="#ah"/><use transform="matrix(0.05,0,0,0.05,73.2,0)" xlink:href="#aq"/><use transform="matrix(0.05,0,0,0.05,83.2,0)" xlink:href="#ai"/></g><g id="q"><use transform="matrix(0.05,0,0,0.05,0,0)" xlink:href="#aw"/><use transform="matrix(0.05,0,0,0.05,12,0)" xlink:href="#aB"/><use transform="matrix(0.05,0,0,0.05,26.950000000000003,0)" xlink:href="#aq"/><use transform="matrix(0.05,0,0,0.05,36.95,0)" xlink:href="#ar"/><use transform="matrix(0.05,0,0,0.05,46.95,0)" xlink:href="#ai"/><use transform="matrix(0.05,0,0,0.05,56.95,0)" xlink:href="#aj"/></g><path d="M103-251c84 0 111 97 45 133-19 10-37 24-39 52H78c0-63 77-55 77-114 0-30-21-42-52-43-32 0-53 17-56 46l-32-2c7-45 34-72 88-72zM77 0v-35h34V0H77" id="aG"/><g id="r"><use transform="matrix(0.05,0,0,0.05,0,0)" xlink:href="#aq"/><use transform="matrix(0.05,0,0,0.05,10,0)" xlink:href="#au"/><use transform="matrix(0.05,0,0,0.05,19,0)" xlink:href="#aG"/></g><g id="s"><use transform="matrix(0.05,0,0,0.05,0,0)" xlink:href="#aw"/><use transform="matrix(0.05,0,0,0.05,12,0)" xlink:href="#ao"/><use transform="matrix(0.05,0,0,0.05,21,0)" xlink:href="#ao"/><use transform="matrix(0.05,0,0,0.05,30,0)" xlink:href="#ar"/><use transform="matrix(0.05,0,0,0.05,40,0)" xlink:href="#aB"/><use transform="matrix(0.05,0,0,0.05,54.95,0)" xlink:href="#ar"/><use transform="matrix(0.05,0,0,0.05,64.95,0)" xlink:href="#at"/><use transform="matrix(0.05,0,0,0.05,68.9,0)" xlink:href="#an"/><use transform="matrix(0.05,0,0,0.05,78.9,0)" xlink:href="#aj"/><use transform="matrix(0.05,0,0,0.05,83.9,0)" xlink:href="#ak"/><use transform="matrix(0.05,0,0,0.05,93.9,0)" xlink:href="#ay"/></g><g id="t"><use transform="matrix(0.05,0,0,0.05,0,0)" xlink:href="#an"/><use transform="matrix(0.05,0,0,0.05,10,0)" xlink:href="#ao"/><use transform="matrix(0.05,0,0,0.05,19,0)" xlink:href="#au"/><use transform="matrix(0.05,0,0,0.05,28,0)" xlink:href="#ai"/><use transform="matrix(0.05,0,0,0.05,38,0)" xlink:href="#aq"/><use transform="matrix(0.05,0,0,0.05,48,0)" xlink:href="#ax"/><use transform="matrix(0.05,0,0,0.05,60.95,0)" xlink:href="#at"/><use transform="matrix(0.05,0,0,0.05,64.9,0)" xlink:href="#ak"/><use transform="matrix(0.05,0,0,0.05,74.9,0)" xlink:href="#ay"/><use transform="matrix(0.05,0,0,0.05,84.9,0)" xlink:href="#az"/><use transform="matrix(0.05,0,0,0.05,94.9,0)" xlink:href="#ak"/><use transform="matrix(0.05,0,0,0.05,104.9,0)" xlink:href="#aB"/><use transform="matrix(0.05,0,0,0.05,119.85000000000001,0)" xlink:href="#ak"/><use transform="matrix(0.05,0,0,0.05,129.85000000000002,0)" xlink:href="#ai"/><use transform="matrix(0.05,0,0,0.05,139.85000000000002,0)" xlink:href="#aj"/><use transform="matrix(0.05,0,0,0.05,144.85000000000002,0)" xlink:href="#aC"/></g><path d="M190 0L58-211 59 0H30v-248h39L202-35l-2-213h31V0h-41" id="aH"/><g id="u"><use transform="matrix(0.05,0,0,0.05,0,0)" xlink:href="#aH"/><use transform="matrix(0.05,0,0,0.05,12.950000000000001,0)" xlink:href="#aq"/><use transform="matrix(0.05,0,0,0.05,22.950000000000003,0)" xlink:href="#ai"/><use transform="matrix(0.05,0,0,0.05,32.95,0)" xlink:href="#ao"/><use transform="matrix(0.05,0,0,0.05,41.95,0)" xlink:href="#ak"/></g><path d="M212-179c-10-28-35-45-73-45-59 0-87 40-87 99 0 60 29 101 89 101 43 0 62-24 78-52l27 14C228-24 195 4 139 4 59 4 22-46 18-125c-6-104 99-153 187-111 19 9 31 26 39 46" id="aI"/><g id="v"><use transform="matrix(0.05,0,0,0.05,0,0)" xlink:href="#aI"/><use transform="matrix(0.05,0,0,0.05,12.950000000000001,0)" xlink:href="#at"/><use transform="matrix(0.05,0,0,0.05,16.900000000000002,0)" xlink:href="#aq"/><use transform="matrix(0.05,0,0,0.05,26.900000000000002,0)" xlink:href="#aC"/><use transform="matrix(0.05,0,0,0.05,35.900000000000006,0)" xlink:href="#ah"/><use transform="matrix(0.05,0,0,0.05,39.85000000000001,0)" xlink:href="#ai"/><use transform="matrix(0.05,0,0,0.05,49.85000000000001,0)" xlink:href="#az"/></g><path d="M145-31C134-9 116 4 85 4 32 4 16-35 15-94c0-59 17-99 70-100 32-1 48 14 60 33 0-11-1-24 2-32h30l-1 268h-32zM93-21c41 0 51-33 51-76s-8-73-50-73c-40 0-46 35-46 75s5 74 45 74" id="aJ"/><g id="w"><use transform="matrix(0.05,0,0,0.05,0,0)" xlink:href="#Y"/><use transform="matrix(0.05,0,0,0.05,12.950000000000001,0)" xlink:href="#ak"/><use transform="matrix(0.05,0,0,0.05,22.950000000000003,0)" xlink:href="#aJ"/><use transform="matrix(0.05,0,0,0.05,32.95,0)" xlink:href="#ar"/><use transform="matrix(0.05,0,0,0.05,42.95,0)" xlink:href="#ak"/><use transform="matrix(0.05,0,0,0.05,52.95,0)" xlink:href="#aC"/><use transform="matrix(0.05,0,0,0.05,61.95,0)" xlink:href="#aj"/></g><g id="x"><use transform="matrix(0.04548408057179987,0,0,0.04548408057179987,0,0)" xlink:href="#ag"/><use transform="matrix(0.04548408057179987,0,0,0.04548408057179987,9.096816114359974,0)" xlink:href="#N"/><use transform="matrix(0.04548408057179987,0,0,0.04548408057179987,18.19363222871995,0)" xlink:href="#O"/><use transform="matrix(0.04548408057179987,0,0,0.04548408057179987,26.380766731643924,0)" xlink:href="#Q"/><use transform="matrix(0.04548408057179987,0,0,0.04548408057179987,35.4775828460039,0)" xlink:href="#U"/></g><g id="y"><use transform="matrix(0.05,0,0,0.05,0,0)" xlink:href="#V"/><use transform="matrix(0.05,0,0,0.05,12.950000000000001,0)" xlink:href="#an"/><use transform="matrix(0.05,0,0,0.05,22.950000000000003,0)" xlink:href="#aC"/></g><path d="M115-194c53 0 69 39 70 98 0 66-23 100-70 100C84 3 66-7 56-30L54 0H23l1-261h32v101c10-23 28-34 59-34zm-8 174c40 0 45-34 45-75 0-40-5-75-45-74-42 0-51 32-51 76 0 43 10 73 51 73" id="aK"/><g id="z"><use transform="matrix(0.05,0,0,0.05,0,0)" xlink:href="#aK"/><use transform="matrix(0.05,0,0,0.05,10,0)" xlink:href="#ak"/><use transform="matrix(0.05,0,0,0.05,20,0)" xlink:href="#aj"/><use transform="matrix(0.05,0,0,0.05,25,0)" xlink:href="#aj"/><use transform="matrix(0.05,0,0,0.05,30,0)" xlink:href="#ak"/><use transform="matrix(0.05,0,0,0.05,40,0)" xlink:href="#al"/></g><g id="A"><use transform="matrix(0.05,0,0,0.05,0,0)" xlink:href="#aj"/><use transform="matrix(0.05,0,0,0.05,5,0)" xlink:href="#al"/><use transform="matrix(0.05,0,0,0.05,10.95,0)" xlink:href="#an"/><use transform="matrix(0.05,0,0,0.05,20.95,0)" xlink:href="#ai"/><use transform="matrix(0.05,0,0,0.05,30.950000000000003,0)" xlink:href="#aC"/><use transform="matrix(0.05,0,0,0.05,39.95,0)" xlink:href="#an"/><use transform="matrix(0.05,0,0,0.05,49.95,0)" xlink:href="#ao"/><use transform="matrix(0.05,0,0,0.05,58.95,0)" xlink:href="#aj"/><use transform="matrix(0.05,0,0,0.05,63.95,0)" xlink:href="#ah"/><use transform="matrix(0.05,0,0,0.05,67.9,0)" xlink:href="#aq"/><use transform="matrix(0.05,0,0,0.05,77.9,0)" xlink:href="#ai"/><use transform="matrix(0.05,0,0,0.05,87.9,0)" xlink:href="#aG"/></g><g id="B"><use transform="matrix(0.05,0,0,0.05,0,0)" xlink:href="#aD"/><use transform="matrix(0.05,0,0,0.05,14,0)" xlink:href="#ak"/><use transform="matrix(0.05,0,0,0.05,24,0)" xlink:href="#ai"/><use transform="matrix(0.05,0,0,0.05,34,0)" xlink:href="#ak"/><use transform="matrix(0.05,0,0,0.05,44,0)" xlink:href="#al"/><use transform="matrix(0.05,0,0,0.05,49.95,0)" xlink:href="#an"/><use transform="matrix(0.05,0,0,0.05,59.95,0)" xlink:href="#aj"/><use transform="matrix(0.05,0,0,0.05,64.95,0)" xlink:href="#ak"/></g><g id="C"><use transform="matrix(0.05,0,0,0.05,0,0)" xlink:href="#ax"/><use transform="matrix(0.05,0,0,0.05,12.950000000000001,0)" xlink:href="#ah"/><use transform="matrix(0.05,0,0,0.05,16.900000000000002,0)" xlink:href="#aj"/><use transform="matrix(0.05,0,0,0.05,21.900000000000002,0)" xlink:href="#av"/><use transform="matrix(0.05,0,0,0.05,31.900000000000002,0)" xlink:href="#ay"/><use transform="matrix(0.05,0,0,0.05,41.900000000000006,0)" xlink:href="#al"/><use transform="matrix(0.05,0,0,0.05,47.85000000000001,0)" xlink:href="#an"/><use transform="matrix(0.05,0,0,0.05,57.85,0)" xlink:href="#ax"/></g><g id="D"><use transform="matrix(0.05,0,0,0.05,0,0)" xlink:href="#aj"/><use transform="matrix(0.05,0,0,0.05,5,0)" xlink:href="#al"/><use transform="matrix(0.05,0,0,0.05,10.95,0)" xlink:href="#an"/><use transform="matrix(0.05,0,0,0.05,20.95,0)" xlink:href="#ai"/><use transform="matrix(0.05,0,0,0.05,30.950000000000003,0)" xlink:href="#aC"/><use transform="matrix(0.05,0,0,0.05,39.95,0)" xlink:href="#an"/><use transform="matrix(0.05,0,0,0.05,49.95,0)" xlink:href="#ao"/><use transform="matrix(0.05,0,0,0.05,58.95,0)" xlink:href="#aj"/><use transform="matrix(0.05,0,0,0.05,63.95,0)" xlink:href="#ah"/><use transform="matrix(0.05,0,0,0.05,67.9,0)" xlink:href="#aq"/><use transform="matrix(0.05,0,0,0.05,77.9,0)" xlink:href="#ai"/></g><path d="M185-189c-5-48-123-54-124 2 14 75 158 14 163 119 3 78-121 87-175 55-17-10-28-26-33-46l33-7c5 56 141 63 141-1 0-78-155-14-162-118-5-82 145-84 179-34 5 7 8 16 11 25" id="aL"/><g id="E"><use transform="matrix(0.05,0,0,0.05,0,0)" xlink:href="#aL"/><use transform="matrix(0.05,0,0,0.05,12,0)" xlink:href="#aj"/><use transform="matrix(0.05,0,0,0.05,17,0)" xlink:href="#an"/><use transform="matrix(0.05,0,0,0.05,27,0)" xlink:href="#al"/><use transform="matrix(0.05,0,0,0.05,32.95,0)" xlink:href="#aj"/></g><g id="F"><use transform="matrix(0.05,0,0,0.05,0,0)" xlink:href="#aj"/><use transform="matrix(0.05,0,0,0.05,5,0)" xlink:href="#ah"/><use transform="matrix(0.05,0,0,0.05,8.95,0)" xlink:href="#aB"/><use transform="matrix(0.05,0,0,0.05,23.9,0)" xlink:href="#ak"/><use transform="matrix(0.05,0,0,0.05,33.9,0)" xlink:href="#al"/></g><g id="G"><use transform="matrix(0.05,0,0,0.05,0,0)" xlink:href="#X"/><use transform="matrix(0.05,0,0,0.05,12,0)" xlink:href="#an"/><use transform="matrix(0.05,0,0,0.05,22,0)" xlink:href="#ap"/><use transform="matrix(0.05,0,0,0.05,31,0)" xlink:href="#aq"/><use transform="matrix(0.05,0,0,0.05,41,0)" xlink:href="#ar"/><use transform="matrix(0.05,0,0,0.05,51,0)" xlink:href="#aj"/></g><g id="H"><use transform="matrix(0.05,0,0,0.05,0,0)" xlink:href="#am"/><use transform="matrix(0.05,0,0,0.05,5,0)" xlink:href="#ah"/><use transform="matrix(0.05,0,0,0.05,8.95,0)" xlink:href="#ai"/><use transform="matrix(0.05,0,0,0.05,18.95,0)" xlink:href="#ah"/><use transform="matrix(0.05,0,0,0.05,22.9,0)" xlink:href="#aC"/><use transform="matrix(0.05,0,0,0.05,31.899999999999995,0)" xlink:href="#av"/><use transform="matrix(0.05,0,0,0.05,41.9,0)" xlink:href="#ak"/><use transform="matrix(0.05,0,0,0.05,51.900000000000006,0)" xlink:href="#ay"/></g><g id="I"><use transform="matrix(0.05,0,0,0.05,0,0)" xlink:href="#aw"/><use transform="matrix(0.05,0,0,0.05,12,0)" xlink:href="#at"/><use transform="matrix(0.05,0,0,0.05,15.949999999999998,0)" xlink:href="#at"/></g><g id="J"><use transform="matrix(0.05,0,0,0.05,0,0)" xlink:href="#aE"/><use transform="matrix(0.05,0,0,0.05,10,0)" xlink:href="#an"/><use transform="matrix(0.05,0,0,0.05,20,0)" xlink:href="#ap"/><use transform="matrix(0.05,0,0,0.05,29,0)" xlink:href="#aB"/><use transform="matrix(0.05,0,0,0.05,43.95,0)" xlink:href="#ak"/><use transform="matrix(0.05,0,0,0.05,53.95,0)" xlink:href="#ai"/><use transform="matrix(0.05,0,0,0.05,63.95,0)" xlink:href="#aj"/></g><g id="K"><use transform="matrix(0.05,0,0,0.05,0,0)" xlink:href="#ao"/><use transform="matrix(0.05,0,0,0.05,9,0)" xlink:href="#av"/><use transform="matrix(0.05,0,0,0.05,19,0)" xlink:href="#an"/><use transform="matrix(0.05,0,0,0.05,29,0)" xlink:href="#ai"/><use transform="matrix(0.05,0,0,0.05,39,0)" xlink:href="#ai"/><use transform="matrix(0.05,0,0,0.05,49,0)" xlink:href="#ak"/><use transform="matrix(0.05,0,0,0.05,59,0)" xlink:href="#at"/><use transform="matrix(0.05,0,0,0.05,62.95,0)" xlink:href="#aC"/></g><g id="L"><use transform="matrix(0.05,0,0,0.05,0,0)" xlink:href="#ao"/><use transform="matrix(0.05,0,0,0.05,9,0)" xlink:href="#at"/><use transform="matrix(0.05,0,0,0.05,12.949999999999998,0)" xlink:href="#aq"/><use transform="matrix(0.05,0,0,0.05,22.95,0)" xlink:href="#aC"/><use transform="matrix(0.05,0,0,0.05,31.950000000000003,0)" xlink:href="#ak"/><use transform="matrix(0.05,0,0,0.05,41.95,0)" xlink:href="#ay"/><use transform="matrix(0.05,0,0,0.05,51.95,0)" xlink:href="#aG"/></g></defs></g></svg>